<svg viewBox="0 0 330 200" xmlns="http://www.w3.org/2000/svg"><g><g><g><g><g><line x1="51.41600036621094" y1="176.9749994277954" x2="46.41600036621094" y2="176.9749994277954" style="visibility: inherit;" fill="rgb(0, 0, 0)" stroke="rgb(204, 204, 204)" stroke-width="1px"></line><line x1="51.41600036621094" y1="163.3615379333496" x2="46.41600036621094" y2="163.3615379333496" style="visibility: inherit;" fill="rgb(0, 0, 0)" stroke="rgb(204, 204, 204)" stroke-width="1px"></line><line x1="51.41600036621094" y1="149.74807643890384" x2="46.41600036621094" y2="149.74807643890384" style="visibility: inherit;" fill="rgb(0, 0, 0)" stroke="rgb(204, 204, 204)" stroke-width="1px"></line><line x1="51.41600036621094" y1="136.134614944458" x2="46.41600036621094" y2="136.134614944458" style="visibility: inherit;" fill="rgb(0, 0, 0)" stroke="rgb(204, 204, 204)" stroke-width="1px"></line><line x1="51.41600036621094" y1="122.52115345001222" x2="46.41600036621094" y2="122.52115345001222" style="visibility: inherit;" fill="rgb(0, 0, 0)" stroke="rgb(204, 204, 204)" stroke-width="1px"></line><line x1="51.41600036621094" y1="108.9076919555664" x2="46.41600036621094" y2="108.9076919555664" style="visibility: inherit;" fill="rgb(0, 0, 0)" stroke="rgb(204, 204, 204)" stroke-width="1px"></line><line x1="51.41600036621094" y1="95.29423046112062" x2="46.41600036621094" y2="95.29423046112062" style="visibility: inherit;" fill="rgb(0, 0, 0)" stroke="rgb(204, 204, 204)" stroke-width="1px"></line><line x1="51.41600036621094" y1="81.6807689666748" x2="46.41600036621094" y2="81.6807689666748" style="visibility: inherit;" fill="rgb(0, 0, 0)" stroke="rgb(204, 204, 204)" stroke-width="1px"></line><line x1="51.41600036621094" y1="68.067307472229" x2="46.41600036621094" y2="68.067307472229" style="visibility: inherit;" fill="rgb(0, 0, 0)" stroke="rgb(204, 204, 204)" stroke-width="1px"></line><line x1="51.41600036621094" y1="54.453845977783224" x2="46.41600036621094" y2="54.453845977783224" style="visibility: inherit;" fill="rgb(0, 0, 0)" stroke="rgb(204, 204, 204)" stroke-width="1px"></line><line x1="51.41600036621094" y1="40.84038448333742" x2="46.41600036621094" y2="40.84038448333742" style="visibility: inherit;" fill="rgb(0, 0, 0)" stroke="rgb(204, 204, 204)" stroke-width="1px"></line><line x1="51.41600036621094" y1="27.226922988891623" x2="46.41600036621094" y2="27.226922988891623" style="visibility: inherit;" fill="rgb(0, 0, 0)" stroke="rgb(204, 204, 204)" stroke-width="1px"></line><line x1="51.41600036621094" y1="13.613461494445811" x2="46.41600036621094" y2="13.613461494445811" style="visibility: inherit;" fill="rgb(0, 0, 0)" stroke="rgb(204, 204, 204)" stroke-width="1px"></line><line x1="51.41600036621094" y1="0" x2="46.41600036621094" y2="0" style="visibility: inherit;" fill="rgb(0, 0, 0)" stroke="rgb(204, 204, 204)" stroke-width="1px"></line></g><g transform="translate(41.41600036621094, 0)"><text style="text-anchor: end; visibility: hidden; font-family: Roboto, sans-serif; font-size: 12px; font-weight: 200;" x="0" y="176.9749994277954" dx="0em" dy="0.3em" fill="rgb(33, 33, 33)" stroke="none" stroke-width="1px">0.4</text><text style="text-anchor: end; visibility: inherit; font-family: Roboto, sans-serif; font-size: 12px; font-weight: 200;" x="0" y="163.3615379333496" dx="0em" dy="0.3em" fill="rgb(33, 33, 33)" stroke="none" stroke-width="1px">0.45</text><text style="text-anchor: end; visibility: hidden; font-family: Roboto, sans-serif; font-size: 12px; font-weight: 200;" x="0" y="149.74807643890384" dx="0em" dy="0.3em" fill="rgb(33, 33, 33)" stroke="none" stroke-width="1px">0.5</text><text style="text-anchor: end; visibility: inherit; font-family: Roboto, sans-serif; font-size: 12px; font-weight: 200;" x="0" y="136.134614944458" dx="0em" dy="0.3em" fill="rgb(33, 33, 33)" stroke="none" stroke-width="1px">0.55</text><text style="text-anchor: end; visibility: hidden; font-family: Roboto, sans-serif; font-size: 12px; font-weight: 200;" x="0" y="122.52115345001222" dx="0em" dy="0.3em" fill="rgb(33, 33, 33)" stroke="none" stroke-width="1px">0.6</text><text style="text-anchor: end; visibility: inherit; font-family: Roboto, sans-serif; font-size: 12px; font-weight: 200;" x="0" y="108.9076919555664" dx="0em" dy="0.3em" fill="rgb(33, 33, 33)" stroke="none" stroke-width="1px">0.65</text><text style="text-anchor: end; visibility: hidden; font-family: Roboto, sans-serif; font-size: 12px; font-weight: 200;" x="0" y="95.29423046112062" dx="0em" dy="0.3em" fill="rgb(33, 33, 33)" stroke="none" stroke-width="1px">0.7</text><text style="text-anchor: end; visibility: inherit; font-family: Roboto, sans-serif; font-size: 12px; font-weight: 200;" x="0" y="81.6807689666748" dx="0em" dy="0.3em" fill="rgb(33, 33, 33)" stroke="none" stroke-width="1px">0.75</text><text style="text-anchor: end; visibility: hidden; font-family: Roboto, sans-serif; font-size: 12px; font-weight: 200;" x="0" y="68.067307472229" dx="0em" dy="0.3em" fill="rgb(33, 33, 33)" stroke="none" stroke-width="1px">0.8</text><text style="text-anchor: end; visibility: inherit; font-family: Roboto, sans-serif; font-size: 12px; font-weight: 200;" x="0" y="54.453845977783224" dx="0em" dy="0.3em" fill="rgb(33, 33, 33)" stroke="none" stroke-width="1px">0.85</text><text style="text-anchor: end; visibility: hidden; font-family: Roboto, sans-serif; font-size: 12px; font-weight: 200;" x="0" y="40.84038448333742" dx="0em" dy="0.3em" fill="rgb(33, 33, 33)" stroke="none" stroke-width="1px">0.9</text><text style="text-anchor: end; visibility: inherit; font-family: Roboto, sans-serif; font-size: 12px; font-weight: 200;" x="0" y="27.226922988891623" dx="0em" dy="0.3em" fill="rgb(33, 33, 33)" stroke="none" stroke-width="1px">0.95</text><text style="text-anchor: end; visibility: hidden; font-family: Roboto, sans-serif; font-size: 12px; font-weight: 200;" x="0" y="13.613461494445811" dx="0em" dy="0.3em" fill="rgb(33, 33, 33)" stroke="none" stroke-width="1px">1</text><text style="text-anchor: end; visibility: hidden; font-family: Roboto, sans-serif; font-size: 12px; font-weight: 200;" x="0" y="0" dx="0em" dy="0.3em" fill="rgb(33, 33, 33)" stroke="none" stroke-width="1px">1.05</text></g><line x1="51.41600036621094" y1="0" x2="51.41600036621094" y2="176.9749994277954" fill="rgb(0, 0, 0)" stroke="rgb(204, 204, 204)" stroke-width="1px"></line></g></g><g transform="translate(51, 0)" clip-path="url(#clip_0)"><clipPath id="clip_0"><rect width="278" height="176"></rect></clipPath><g><g><g><line x1="0" y1="0" x2="0" y2="176.9749994277954" fill="rgb(0, 0, 0)" stroke="rgb(66, 66, 66)" stroke-width="1px" opacity="0.25"></line><line x1="19.89885711669922" y1="0" x2="19.89885711669922" y2="176.9749994277954" fill="rgb(0, 0, 0)" stroke="rgb(66, 66, 66)" stroke-width="1px" opacity="0.25"></line><line x1="39.79771423339844" y1="0" x2="39.79771423339844" y2="176.9749994277954" fill="rgb(0, 0, 0)" stroke="rgb(66, 66, 66)" stroke-width="1px" opacity="0.25"></line><line x1="59.696571350097656" y1="0" x2="59.696571350097656" y2="176.9749994277954" fill="rgb(0, 0, 0)" stroke="rgb(66, 66, 66)" stroke-width="1px" opacity="0.25"></line><line x1="79.59542846679688" y1="0" x2="79.59542846679688" y2="176.9749994277954" fill="rgb(0, 0, 0)" stroke="rgb(66, 66, 66)" stroke-width="1px" opacity="0.25"></line><line x1="99.4942855834961" y1="0" x2="99.4942855834961" y2="176.9749994277954" fill="rgb(0, 0, 0)" stroke="rgb(66, 66, 66)" stroke-width="1px" opacity="0.25"></line><line x1="119.39314270019531" y1="0" x2="119.39314270019531" y2="176.9749994277954" fill="rgb(0, 0, 0)" stroke="rgb(66, 66, 66)" stroke-width="1px" opacity="0.25"></line><line x1="139.29199981689453" y1="0" x2="139.29199981689453" y2="176.9749994277954" fill="rgb(0, 0, 0)" stroke="rgb(66, 66, 66)" stroke-width="1px" opacity="0.25"></line><line x1="159.19085693359375" y1="0" x2="159.19085693359375" y2="176.9749994277954" fill="rgb(0, 0, 0)" stroke="rgb(66, 66, 66)" stroke-width="1px" opacity="0.25"></line><line x1="179.08971405029297" y1="0" x2="179.08971405029297" y2="176.9749994277954" fill="rgb(0, 0, 0)" stroke="rgb(66, 66, 66)" stroke-width="1px" opacity="0.25"></line><line x1="198.9885711669922" y1="0" x2="198.9885711669922" y2="176.9749994277954" fill="rgb(0, 0, 0)" stroke="rgb(66, 66, 66)" stroke-width="1px" opacity="0.25"></line><line x1="218.8874282836914" y1="0" x2="218.8874282836914" y2="176.9749994277954" fill="rgb(0, 0, 0)" stroke="rgb(66, 66, 66)" stroke-width="1px" opacity="0.25"></line><line x1="238.78628540039062" y1="0" x2="238.78628540039062" y2="176.9749994277954" fill="rgb(0, 0, 0)" stroke="rgb(66, 66, 66)" stroke-width="1px" opacity="0.25"></line><line x1="258.68514251708984" y1="0" x2="258.68514251708984" y2="176.9749994277954" fill="rgb(0, 0, 0)" stroke="rgb(66, 66, 66)" stroke-width="1px" opacity="0.25"></line><line x1="278.58399963378906" y1="0" x2="278.58399963378906" y2="176.9749994277954" fill="rgb(0, 0, 0)" stroke="rgb(66, 66, 66)" stroke-width="1px" opacity="0.25"></line></g><g><line x1="0" y1="176.9749994277954" x2="278.58399963378906" y2="176.9749994277954" fill="rgb(0, 0, 0)" stroke="rgb(66, 66, 66)" stroke-width="1px" opacity="0.25"></line><line x1="0" y1="163.3615379333496" x2="278.58399963378906" y2="163.3615379333496" fill="rgb(0, 0, 0)" stroke="rgb(66, 66, 66)" stroke-width="1px" opacity="0.25"></line><line x1="0" y1="149.74807643890384" x2="278.58399963378906" y2="149.74807643890384" fill="rgb(0, 0, 0)" stroke="rgb(66, 66, 66)" stroke-width="1px" opacity="0.25"></line><line x1="0" y1="136.134614944458" x2="278.58399963378906" y2="136.134614944458" fill="rgb(0, 0, 0)" stroke="rgb(66, 66, 66)" stroke-width="1px" opacity="0.25"></line><line x1="0" y1="122.52115345001222" x2="278.58399963378906" y2="122.52115345001222" fill="rgb(0, 0, 0)" stroke="rgb(66, 66, 66)" stroke-width="1px" opacity="0.25"></line><line x1="0" y1="108.9076919555664" x2="278.58399963378906" y2="108.9076919555664" fill="rgb(0, 0, 0)" stroke="rgb(66, 66, 66)" stroke-width="1px" opacity="0.25"></line><line x1="0" y1="95.29423046112062" x2="278.58399963378906" y2="95.29423046112062" fill="rgb(0, 0, 0)" stroke="rgb(66, 66, 66)" stroke-width="1px" opacity="0.25"></line><line x1="0" y1="81.6807689666748" x2="278.58399963378906" y2="81.6807689666748" fill="rgb(0, 0, 0)" stroke="rgb(66, 66, 66)" stroke-width="1px" opacity="0.25"></line><line x1="0" y1="68.067307472229" x2="278.58399963378906" y2="68.067307472229" fill="rgb(0, 0, 0)" stroke="rgb(66, 66, 66)" stroke-width="1px" opacity="0.25"></line><line x1="0" y1="54.453845977783224" x2="278.58399963378906" y2="54.453845977783224" fill="rgb(0, 0, 0)" stroke="rgb(66, 66, 66)" stroke-width="1px" opacity="0.25"></line><line x1="0" y1="40.84038448333742" x2="278.58399963378906" y2="40.84038448333742" fill="rgb(0, 0, 0)" stroke="rgb(66, 66, 66)" stroke-width="1px" opacity="0.25"></line><line x1="0" y1="27.226922988891623" x2="278.58399963378906" y2="27.226922988891623" fill="rgb(0, 0, 0)" stroke="rgb(66, 66, 66)" stroke-width="1px" opacity="0.25"></line><line x1="0" y1="13.613461494445811" x2="278.58399963378906" y2="13.613461494445811" fill="rgb(0, 0, 0)" stroke="rgb(66, 66, 66)" stroke-width="1px" opacity="0.25"></line><line x1="0" y1="0" x2="278.58399963378906" y2="0" fill="rgb(0, 0, 0)" stroke="rgb(66, 66, 66)" stroke-width="1px" opacity="0.25"></line></g></g></g><g><g><line x1="0" y1="285.8826913833618" x2="278.58399963378906" y2="285.8826913833618" fill="rgb(0, 0, 0)" stroke="rgb(153, 153, 153)" stroke-width="1.5px"></line></g></g><g><g><line x1="19.89885711669922" y1="0" x2="19.89885711669922" y2="176.9749994277954" fill="rgb(0, 0, 0)" stroke="rgb(153, 153, 153)" stroke-width="1.5px"></line></g></g><g><g><g><g><g><path style="fill: none;" stroke="rgb(255, 112, 67)" stroke-width="2px" d="M19.89885711669922,165.11186720392197L21.88874282836914,164.94793895990253L23.878628540039063,157.69843345055057L25.868514251708984,146.3501506830984L27.858399963378908,140.2011176474793L29.848285675048828,136.22150539649712L31.83817138671875,129.31032648936906L33.82805709838867,119.34389495728256L35.81794281005859,113.33519664925052L37.80782852172851,106.59822531739273L39.79771423339844,102.23257875916806L41.78759994506836,98.8999566768518L43.77748565673828,97.53525549466596L45.767371368408206,94.00541309295718L47.757257080078126,89.49233676351183L49.74714279174805,86.2137433699508L51.73702850341797,80.89045781643439L53.726914215087895,78.65835606295636L55.716799926757815,77.1855674514352L57.706685638427736,75.3803009025237L59.696571350097656,71.69421580478978L61.68645706176758,66.93574541576967L63.6763427734375,63.85473569907512L65.66622848510742,61.83895853165368L67.65611419677734,61.08295668022661L69.64599990844727,58.97959618688534L71.63588562011718,55.70411529144026L73.6257713317871,54.212117477322096L75.61565704345702,50.22346548554603L77.60554275512696,47.75367664347L79.59542846679688,49.920038297912235L81.5853141784668,45.48567266868567L83.57519989013672,40.727291205737856L85.56508560180664,39.312659687296005L87.55497131347656,41.47808654027388L89.54485702514648,37.83319695501698L91.53474273681641,34.66213387409607L93.52462844848633,32.74894101468481L95.51451416015625,31.261615738000298L97.50439987182617,30.316971260891563L99.4942855834961,28.36780108185062L101.484171295166,31.12528698676348L103.47405700683593,29.316413104376554L105.46394271850586,28.66611023400382L107.45382843017579,25.583774375036047L109.4437141418457,26.25174593598316L111.43359985351563,24.401744787951806L113.42348556518554,21.839259931716764L115.41337127685547,22.751027788771957L117.40325698852538,22.171628624737632L119.39314270019531,21.88077593106958L121.38302841186524,21.716371431352776L123.37291412353515,21.021512721485276L125.36279983520508,23.147325996699735L127.352685546875,21.39232134216877L129.34257125854492,19.37287178700574L131.33245697021485,17.51781950028359L133.32234268188478,19.494099362200068L135.31222839355468,21.07986112043825L137.3021141052246,19.503461481483196L139.29199981689453,17.965268073627417L141.28188552856446,17.819671727302065L143.27177124023436,17.283309976011413L145.2616569519043,18.308537212744792L147.2515426635742,19.80949707591899L149.24142837524414,18.699256651808906L151.23131408691404,17.872820151152677L153.221199798584,18.733882455599588L155.21108551025392,18.591486508894306L157.20097122192382,18.830690560934308L159.19085693359375,17.406194811135745L161.18074264526368,17.495022975145215L163.1706283569336,17.675369638360138L165.1605140686035,17.980403505836538L167.15039978027343,18.6004835859199L169.14028549194336,17.591277645841682L171.1301712036133,16.155769620383108L173.12005691528321,17.812740186270243L175.1099426269531,16.33249658063484L177.09982833862304,16.029401211907473L179.08971405029297,18.0333166611722L181.0795997619629,18.327719703768626L183.06948547363282,21.48751882888324L185.05937118530272,19.10072677911585L187.04925689697265,18.40038860670285L189.03914260864258,17.796057020503397L191.0290283203125,16.931971121584873L193.0189140319824,16.188787165633677L195.00879974365233,17.016496805620275L196.9986854553223,15.655282681150489L198.9885711669922,16.23397893016702L200.97845687866212,18.81735563019506L202.968342590332,17.291371303657794L204.95822830200197,16.60388865456754L206.94811401367187,15.670262637121708L208.9379997253418,15.994982276974605L210.92788543701172,17.88772524179821L212.91777114868162,17.077585566878266L214.90765686035158,17.48375177330986L216.89754257202148,16.542302832711492L218.8874282836914,15.544658035587851L220.8773139953613,20.452229580357567L222.86719970703126,18.9496672202545L224.8570854187012,16.908271667482893L226.8469711303711,17.37607449644644L228.83685684204102,16.99989748488907L230.82674255371094,16.60659620193557L232.81662826538087,15.584558303597944L234.80651397705077,14.796119579937091L236.7963996887207,14.323056345740579L238.78628540039062,15.562400456798207L240.77617111206055,16.788415633416484L242.76605682373048,16.81781837502174L244.75594253540038,16.724106470754467L246.7458282470703,20.064149596914056L248.73571395874023,17.610807275458757L250.72559967041016,16.138801882585575L252.7154853820801,16.52492135077746L254.70537109375,16.82457750884609L256.6952568054199,16.79804191825589L258.68514251708984,15.724696770300147L260.67502822875974,16.67937974783046L262.6649139404297,16.24482745064938L264.6547996520996,16.106842036104254L266.64468536376955,17.226667820785078" fill="none"></path></g></g></g></g><g opacity="0.2"><g><g><g><path style="fill: none;" stroke="rgb(255, 112, 67)" stroke-width="2px" d="M19.89885711669922,165.11186720392197L21.88874282836914,164.84958201349082L23.878628540039063,150.73890816157268L25.868514251708984,133.00457014857466L27.858399963378908,132.1729401161749L29.848285675048828,130.71626899297848L31.83817138671875,119.42723007331347L33.82805709838867,104.8127421057577L35.81794281005859,104.47353377446258L37.80782852172851,96.59460804317088L39.79771423339844,95.72370501480259L41.78759994506836,93.91915953558079L43.77748565673828,95.49265970752822L45.767371368408206,88.71756481912395L47.757257080078126,82.72802722115466L49.74714279174805,81.29816559768553L51.73702850341797,72.90778212220198L53.726914215087895,75.31077016313272L55.716799926757815,74.97660889867484L57.706685638427736,72.67256608766981L59.696571350097656,66.16529031185587L61.68645706176758,59.79819641173458L63.6763427734375,59.23328195319551L65.66622848510742,58.81531665932381L67.65611419677734,59.9489592764237L69.64599990844727,55.824564416745034L71.63588562011718,50.79090232933051L73.6257713317871,51.97412304671298L75.61565704345702,44.240491171994115L77.60554275512696,44.048994745370706L79.59542846679688,53.1695800611865L81.5853141784668,38.83412510713608L83.57519989013672,33.58971957937138L85.56508560180664,37.190712510960346L87.55497131347656,44.72622672667763L89.54485702514648,32.36586267111899L91.53474273681641,29.90553930177635L93.52462844848633,29.879151743328077L95.51451416015625,29.030627831257572L97.50439987182617,28.90000454838537L99.4942855834961,25.444045817197562L101.484171295166,35.26151584081527L103.47405700683593,26.603102282101894L105.46394271850586,27.690655928726322L107.45382843017579,20.960270587385388L109.4437141418457,27.253703277299575L111.43359985351563,21.626743066077793L113.42348556518554,17.99553264750808L115.41337127685547,24.118679574324016L117.40325698852538,21.302529878697918L119.39314270019531,21.444496890570925L121.38302841186524,21.46976468177879L123.37291412353515,19.979224656687176L125.36279983520508,26.33604590951587L127.352685546875,18.759814360375014L129.34257125854492,16.343697454263076L131.33245697021485,14.735241070201498L133.32234268188478,22.458519155074118L135.31222839355468,23.458503757795146L137.3021141052246,17.138862023050713L139.29199981689453,15.657977961843937L141.28188552856446,17.601277207814082L143.27177124023436,16.478767349075515L145.2616569519043,19.846378067844864L147.2515426635742,22.06093687068029L149.24142837524414,17.033896015643926L151.23131408691404,16.633165400168316L153.221199798584,20.025475912269954L155.21108551025392,18.37789258883641L157.20097122192382,19.18949663899435L159.19085693359375,15.269451186437898L161.18074264526368,17.628265221159403L163.1706283569336,17.94588963318257L165.1605140686035,18.437954307051093L167.15039978027343,19.530603706045003L169.14028549194336,16.07746873572433L171.1301712036133,14.002507582195227L173.12005691528321,20.298196035101014L175.1099426269531,14.11213117218177L177.09982833862304,15.574758158816412L179.08971405029297,21.03918983506925L181.0795997619629,18.769324267663254L183.06948547363282,26.22721751655513L185.05937118530272,15.520538704464816L187.04925689697265,17.349881348083287L189.03914260864258,16.889559641204198L191.0290283203125,15.635842273207123L193.0189140319824,15.074011231706901L195.00879974365233,18.258061265600197L196.9986854553223,13.613461494445811L198.9885711669922,17.102023303691798L200.97845687866212,22.69242068023711L202.968342590332,15.002394813851897L204.95822830200197,15.572664680932135L206.94811401367187,14.269823610952947L208.9379997253418,16.48206173675387L210.92788543701172,20.726839689033575L212.91777114868162,15.862376054498347L214.90765686035158,18.093001082957255L216.89754257202148,15.130129421814L218.8874282836914,14.048190839902432L220.8773139953613,27.813586897512113L222.86719970703126,16.695823680099927L224.8570854187012,13.84617833832545L226.8469711303711,18.077778739891777L228.83685684204102,16.435631967553043L230.82674255371094,16.0166442775053L232.81662826538087,14.051501456091513L234.80651397705077,13.613461494445811L236.7963996887207,13.613461494445811L238.78628540039062,17.42141662338464L240.77617111206055,18.6274383983439L242.76605682373048,16.86192248742965L244.75594253540038,16.58353861435355L246.7458282470703,25.074214286153406L248.73571395874023,13.930793793275846L250.72559967041016,13.930793793275846L252.7154853820801,17.10410055306535L254.70537109375,17.274061745949002L256.6952568054199,16.758238532370587L258.68514251708984,14.114679048366503L260.67502822875974,18.111404214125987L262.6649139404297,15.592999004877822L264.6547996520996,15.899863914286488L266.64468536376955,18.90640649780632" fill="none"></path></g></g></g></g></g></g><g transform="translate(51, 176)" clip-path="url(#clip_1)"><clipPath id="clip_1"><rect width="278" height="23"></rect></clipPath><g><g><line x1="0" y1="0" x2="0" y2="5" style="visibility: inherit;" fill="rgb(0, 0, 0)" stroke="rgb(204, 204, 204)" stroke-width="1px"></line><line x1="19.89885711669922" y1="0" x2="19.89885711669922" y2="5" style="visibility: inherit;" fill="rgb(0, 0, 0)" stroke="rgb(204, 204, 204)" stroke-width="1px"></line><line x1="39.79771423339844" y1="0" x2="39.79771423339844" y2="5" style="visibility: inherit;" fill="rgb(0, 0, 0)" stroke="rgb(204, 204, 204)" stroke-width="1px"></line><line x1="59.696571350097656" y1="0" x2="59.696571350097656" y2="5" style="visibility: inherit;" fill="rgb(0, 0, 0)" stroke="rgb(204, 204, 204)" stroke-width="1px"></line><line x1="79.59542846679688" y1="0" x2="79.59542846679688" y2="5" style="visibility: inherit;" fill="rgb(0, 0, 0)" stroke="rgb(204, 204, 204)" stroke-width="1px"></line><line x1="99.4942855834961" y1="0" x2="99.4942855834961" y2="5" style="visibility: inherit;" fill="rgb(0, 0, 0)" stroke="rgb(204, 204, 204)" stroke-width="1px"></line><line x1="119.39314270019531" y1="0" x2="119.39314270019531" y2="5" style="visibility: inherit;" fill="rgb(0, 0, 0)" stroke="rgb(204, 204, 204)" stroke-width="1px"></line><line x1="139.29199981689453" y1="0" x2="139.29199981689453" y2="5" style="visibility: inherit;" fill="rgb(0, 0, 0)" stroke="rgb(204, 204, 204)" stroke-width="1px"></line><line x1="159.19085693359375" y1="0" x2="159.19085693359375" y2="5" style="visibility: inherit;" fill="rgb(0, 0, 0)" stroke="rgb(204, 204, 204)" stroke-width="1px"></line><line x1="179.08971405029297" y1="0" x2="179.08971405029297" y2="5" style="visibility: inherit;" fill="rgb(0, 0, 0)" stroke="rgb(204, 204, 204)" stroke-width="1px"></line><line x1="198.9885711669922" y1="0" x2="198.9885711669922" y2="5" style="visibility: inherit;" fill="rgb(0, 0, 0)" stroke="rgb(204, 204, 204)" stroke-width="1px"></line><line x1="218.8874282836914" y1="0" x2="218.8874282836914" y2="5" style="visibility: inherit;" fill="rgb(0, 0, 0)" stroke="rgb(204, 204, 204)" stroke-width="1px"></line><line x1="238.78628540039062" y1="0" x2="238.78628540039062" y2="5" style="visibility: inherit;" fill="rgb(0, 0, 0)" stroke="rgb(204, 204, 204)" stroke-width="1px"></line><line x1="258.68514251708984" y1="0" x2="258.68514251708984" y2="5" style="visibility: inherit;" fill="rgb(0, 0, 0)" stroke="rgb(204, 204, 204)" stroke-width="1px"></line><line x1="278.58399963378906" y1="0" x2="278.58399963378906" y2="5" style="visibility: inherit;" fill="rgb(0, 0, 0)" stroke="rgb(204, 204, 204)" stroke-width="1px"></line></g><g transform="translate(0, 8)"><text style="text-anchor: middle; visibility: hidden; font-family: Roboto, sans-serif; font-size: 12px; font-weight: 200;" x="0" y="0" dx="0em" dy="0.95em" fill="rgb(33, 33, 33)" stroke="none" stroke-width="1px">-10</text><text style="text-anchor: middle; visibility: inherit; font-family: Roboto, sans-serif; font-size: 12px; font-weight: 200;" x="19.89885711669922" y="0" dx="0em" dy="0.95em" fill="rgb(33, 33, 33)" stroke="none" stroke-width="1px">0</text><text style="text-anchor: middle; visibility: hidden; font-family: Roboto, sans-serif; font-size: 12px; font-weight: 200;" x="39.79771423339844" y="0" dx="0em" dy="0.95em" fill="rgb(33, 33, 33)" stroke="none" stroke-width="1px">10</text><text style="text-anchor: middle; visibility: inherit; font-family: Roboto, sans-serif; font-size: 12px; font-weight: 200;" x="59.696571350097656" y="0" dx="0em" dy="0.95em" fill="rgb(33, 33, 33)" stroke="none" stroke-width="1px">20</text><text style="text-anchor: middle; visibility: hidden; font-family: Roboto, sans-serif; font-size: 12px; font-weight: 200;" x="79.59542846679688" y="0" dx="0em" dy="0.95em" fill="rgb(33, 33, 33)" stroke="none" stroke-width="1px">30</text><text style="text-anchor: middle; visibility: inherit; font-family: Roboto, sans-serif; font-size: 12px; font-weight: 200;" x="99.4942855834961" y="0" dx="0em" dy="0.95em" fill="rgb(33, 33, 33)" stroke="none" stroke-width="1px">40</text><text style="text-anchor: middle; visibility: hidden; font-family: Roboto, sans-serif; font-size: 12px; font-weight: 200;" x="119.39314270019531" y="0" dx="0em" dy="0.95em" fill="rgb(33, 33, 33)" stroke="none" stroke-width="1px">50</text><text style="text-anchor: middle; visibility: inherit; font-family: Roboto, sans-serif; font-size: 12px; font-weight: 200;" x="139.29199981689453" y="0" dx="0em" dy="0.95em" fill="rgb(33, 33, 33)" stroke="none" stroke-width="1px">60</text><text style="text-anchor: middle; visibility: hidden; font-family: Roboto, sans-serif; font-size: 12px; font-weight: 200;" x="159.19085693359375" y="0" dx="0em" dy="0.95em" fill="rgb(33, 33, 33)" stroke="none" stroke-width="1px">70</text><text style="text-anchor: middle; visibility: inherit; font-family: Roboto, sans-serif; font-size: 12px; font-weight: 200;" x="179.08971405029297" y="0" dx="0em" dy="0.95em" fill="rgb(33, 33, 33)" stroke="none" stroke-width="1px">80</text><text style="text-anchor: middle; visibility: hidden; font-family: Roboto, sans-serif; font-size: 12px; font-weight: 200;" x="198.9885711669922" y="0" dx="0em" dy="0.95em" fill="rgb(33, 33, 33)" stroke="none" stroke-width="1px">90</text><text style="text-anchor: middle; visibility: inherit; font-family: Roboto, sans-serif; font-size: 12px; font-weight: 200;" x="218.8874282836914" y="0" dx="0em" dy="0.95em" fill="rgb(33, 33, 33)" stroke="none" stroke-width="1px">100</text><text style="text-anchor: middle; visibility: hidden; font-family: Roboto, sans-serif; font-size: 12px; font-weight: 200;" x="238.78628540039062" y="0" dx="0em" dy="0.95em" fill="rgb(33, 33, 33)" stroke="none" stroke-width="1px">110</text><text style="text-anchor: middle; visibility: inherit; font-family: Roboto, sans-serif; font-size: 12px; font-weight: 200;" x="258.68514251708984" y="0" dx="0em" dy="0.95em" fill="rgb(33, 33, 33)" stroke="none" stroke-width="1px">120</text><text style="text-anchor: middle; visibility: hidden; font-family: Roboto, sans-serif; font-size: 12px; font-weight: 200;" x="278.58399963378906" y="0" dx="0em" dy="0.95em" fill="rgb(33, 33, 33)" stroke="none" stroke-width="1px">130</text></g><line x1="0" y1="0" x2="278.58399963378906" y2="0" fill="rgb(0, 0, 0)" stroke="rgb(204, 204, 204)" stroke-width="1px"></line></g></g></g></g></svg>