<svg viewBox="0 0 330 200" xmlns="http://www.w3.org/2000/svg"><g><g><g><g><g><line x1="51.5625" y1="177" x2="46.5625" y2="177" style="visibility: inherit;" fill="rgb(0, 0, 0)" stroke="rgb(204, 204, 204)" stroke-width="1px"></line><line x1="51.5625" y1="157.33333333333331" x2="46.5625" y2="157.33333333333331" style="visibility: inherit;" fill="rgb(0, 0, 0)" stroke="rgb(204, 204, 204)" stroke-width="1px"></line><line x1="51.5625" y1="137.66666666666666" x2="46.5625" y2="137.66666666666666" style="visibility: inherit;" fill="rgb(0, 0, 0)" stroke="rgb(204, 204, 204)" stroke-width="1px"></line><line x1="51.5625" y1="118" x2="46.5625" y2="118" style="visibility: inherit;" fill="rgb(0, 0, 0)" stroke="rgb(204, 204, 204)" stroke-width="1px"></line><line x1="51.5625" y1="98.33333333333334" x2="46.5625" y2="98.33333333333334" style="visibility: inherit;" fill="rgb(0, 0, 0)" stroke="rgb(204, 204, 204)" stroke-width="1px"></line><line x1="51.5625" y1="78.66666666666666" x2="46.5625" y2="78.66666666666666" style="visibility: inherit;" fill="rgb(0, 0, 0)" stroke="rgb(204, 204, 204)" stroke-width="1px"></line><line x1="51.5625" y1="59.00000000000001" x2="46.5625" y2="59.00000000000001" style="visibility: inherit;" fill="rgb(0, 0, 0)" stroke="rgb(204, 204, 204)" stroke-width="1px"></line><line x1="51.5625" y1="39.33333333333335" x2="46.5625" y2="39.33333333333335" style="visibility: inherit;" fill="rgb(0, 0, 0)" stroke="rgb(204, 204, 204)" stroke-width="1px"></line><line x1="51.5625" y1="19.666666666666675" x2="46.5625" y2="19.666666666666675" style="visibility: inherit;" fill="rgb(0, 0, 0)" stroke="rgb(204, 204, 204)" stroke-width="1px"></line><line x1="51.5625" y1="0" x2="46.5625" y2="0" style="visibility: inherit;" fill="rgb(0, 0, 0)" stroke="rgb(204, 204, 204)" stroke-width="1px"></line></g><g transform="translate(41.5625, 0)"><text x="0" y="177" dx="0em" dy="0.3em" style="text-anchor: end; visibility: hidden; font-family: Roboto, sans-serif; font-size: 12px; font-weight: 200;" fill="rgb(33, 33, 33)" stroke="none" stroke-width="1px">-0.1</text><text x="0" y="157.33333333333331" dx="0em" dy="0.3em" style="text-anchor: end; visibility: inherit; font-family: Roboto, sans-serif; font-size: 12px; font-weight: 200;" fill="rgb(33, 33, 33)" stroke="none" stroke-width="1px">0</text><text x="0" y="137.66666666666666" dx="0em" dy="0.3em" style="text-anchor: end; visibility: hidden; font-family: Roboto, sans-serif; font-size: 12px; font-weight: 200;" fill="rgb(33, 33, 33)" stroke="none" stroke-width="1px">0.1</text><text x="0" y="118" dx="0em" dy="0.3em" style="text-anchor: end; visibility: inherit; font-family: Roboto, sans-serif; font-size: 12px; font-weight: 200;" fill="rgb(33, 33, 33)" stroke="none" stroke-width="1px">0.2</text><text x="0" y="98.33333333333334" dx="0em" dy="0.3em" style="text-anchor: end; visibility: hidden; font-family: Roboto, sans-serif; font-size: 12px; font-weight: 200;" fill="rgb(33, 33, 33)" stroke="none" stroke-width="1px">0.3</text><text x="0" y="78.66666666666666" dx="0em" dy="0.3em" style="text-anchor: end; visibility: inherit; font-family: Roboto, sans-serif; font-size: 12px; font-weight: 200;" fill="rgb(33, 33, 33)" stroke="none" stroke-width="1px">0.4</text><text x="0" y="59.00000000000001" dx="0em" dy="0.3em" style="text-anchor: end; visibility: hidden; font-family: Roboto, sans-serif; font-size: 12px; font-weight: 200;" fill="rgb(33, 33, 33)" stroke="none" stroke-width="1px">0.5</text><text x="0" y="39.33333333333335" dx="0em" dy="0.3em" style="text-anchor: end; visibility: inherit; font-family: Roboto, sans-serif; font-size: 12px; font-weight: 200;" fill="rgb(33, 33, 33)" stroke="none" stroke-width="1px">0.6</text><text x="0" y="19.666666666666675" dx="0em" dy="0.3em" style="text-anchor: end; visibility: hidden; font-family: Roboto, sans-serif; font-size: 12px; font-weight: 200;" fill="rgb(33, 33, 33)" stroke="none" stroke-width="1px">0.7</text><text x="0" y="0" dx="0em" dy="0.3em" style="text-anchor: end; visibility: hidden; font-family: Roboto, sans-serif; font-size: 12px; font-weight: 200;" fill="rgb(33, 33, 33)" stroke="none" stroke-width="1px">0.8</text></g><line x1="51.5625" y1="0" x2="51.5625" y2="177" fill="rgb(0, 0, 0)" stroke="rgb(204, 204, 204)" stroke-width="1px"></line></g></g><g transform="translate(51, 0)" clip-path="url(#clip_0)"><clipPath id="clip_0"><rect width="278" height="177"></rect></clipPath><g><g><g><line x1="0" y1="0" x2="0" y2="177" fill="rgb(0, 0, 0)" stroke="rgb(66, 66, 66)" stroke-width="1px" opacity="0.25"></line><line x1="34.8046875" y1="0" x2="34.8046875" y2="177" fill="rgb(0, 0, 0)" stroke="rgb(66, 66, 66)" stroke-width="1px" opacity="0.25"></line><line x1="69.609375" y1="0" x2="69.609375" y2="177" fill="rgb(0, 0, 0)" stroke="rgb(66, 66, 66)" stroke-width="1px" opacity="0.25"></line><line x1="104.4140625" y1="0" x2="104.4140625" y2="177" fill="rgb(0, 0, 0)" stroke="rgb(66, 66, 66)" stroke-width="1px" opacity="0.25"></line><line x1="139.21875" y1="0" x2="139.21875" y2="177" fill="rgb(0, 0, 0)" stroke="rgb(66, 66, 66)" stroke-width="1px" opacity="0.25"></line><line x1="174.0234375" y1="0" x2="174.0234375" y2="177" fill="rgb(0, 0, 0)" stroke="rgb(66, 66, 66)" stroke-width="1px" opacity="0.25"></line><line x1="208.828125" y1="0" x2="208.828125" y2="177" fill="rgb(0, 0, 0)" stroke="rgb(66, 66, 66)" stroke-width="1px" opacity="0.25"></line><line x1="243.6328125" y1="0" x2="243.6328125" y2="177" fill="rgb(0, 0, 0)" stroke="rgb(66, 66, 66)" stroke-width="1px" opacity="0.25"></line><line x1="278.4375" y1="0" x2="278.4375" y2="177" fill="rgb(0, 0, 0)" stroke="rgb(66, 66, 66)" stroke-width="1px" opacity="0.25"></line></g><g><line x1="0" y1="177" x2="278.4375" y2="177" fill="rgb(0, 0, 0)" stroke="rgb(66, 66, 66)" stroke-width="1px" opacity="0.25"></line><line x1="0" y1="157.33333333333331" x2="278.4375" y2="157.33333333333331" fill="rgb(0, 0, 0)" stroke="rgb(66, 66, 66)" stroke-width="1px" opacity="0.25"></line><line x1="0" y1="137.66666666666666" x2="278.4375" y2="137.66666666666666" fill="rgb(0, 0, 0)" stroke="rgb(66, 66, 66)" stroke-width="1px" opacity="0.25"></line><line x1="0" y1="118" x2="278.4375" y2="118" fill="rgb(0, 0, 0)" stroke="rgb(66, 66, 66)" stroke-width="1px" opacity="0.25"></line><line x1="0" y1="98.33333333333334" x2="278.4375" y2="98.33333333333334" fill="rgb(0, 0, 0)" stroke="rgb(66, 66, 66)" stroke-width="1px" opacity="0.25"></line><line x1="0" y1="78.66666666666666" x2="278.4375" y2="78.66666666666666" fill="rgb(0, 0, 0)" stroke="rgb(66, 66, 66)" stroke-width="1px" opacity="0.25"></line><line x1="0" y1="59.00000000000001" x2="278.4375" y2="59.00000000000001" fill="rgb(0, 0, 0)" stroke="rgb(66, 66, 66)" stroke-width="1px" opacity="0.25"></line><line x1="0" y1="39.33333333333335" x2="278.4375" y2="39.33333333333335" fill="rgb(0, 0, 0)" stroke="rgb(66, 66, 66)" stroke-width="1px" opacity="0.25"></line><line x1="0" y1="19.666666666666675" x2="278.4375" y2="19.666666666666675" fill="rgb(0, 0, 0)" stroke="rgb(66, 66, 66)" stroke-width="1px" opacity="0.25"></line><line x1="0" y1="0" x2="278.4375" y2="0" fill="rgb(0, 0, 0)" stroke="rgb(66, 66, 66)" stroke-width="1px" opacity="0.25"></line></g></g></g><g><g><line x1="0" y1="157.33333333333331" x2="278.4375" y2="157.33333333333331" fill="rgb(0, 0, 0)" stroke="rgb(153, 153, 153)" stroke-width="1.5px"></line></g></g><g><g><line x1="34.8046875" y1="0" x2="34.8046875" y2="177" fill="rgb(0, 0, 0)" stroke="rgb(153, 153, 153)" stroke-width="1.5px"></line></g></g><g><g><g><g><g><path stroke="rgb(255, 112, 67)" stroke-width="2px" d="M34.8046875,24.438361962636318L36.544921875,29.96970184261062L38.28515625,33.776915611713804L40.025390625,36.770369601579105L41.765625,39.427898665890034L43.505859375,42.708598358157765L45.24609375,46.4974088816979L46.986328125,51.595433861258435L48.7265625,54.97111388121437L50.466796875,57.86394636308018L52.20703125,58.00939986293728L53.947265625,61.05479364378729L55.6875,65.1568620596399L57.427734375,68.66603285378604L59.16796875,70.20416654402815L60.908203125,74.24544162700535L62.6484375,76.39660790864433L64.388671875,78.45002710755105L66.12890625,81.2365780533334L67.869140625,85.69002348177064L69.609375,87.53014313658203L71.349609375,87.4776856255504L73.08984375,89.93286127503914L74.830078125,91.66311416424075L76.5703125,95.40842226485772L78.310546875,95.42261417596042L80.05078125,97.29387977477073L81.791015625,99.86589605992992L83.53125,101.62704584509056L85.271484375,104.62975507604212L87.01171875,108.15267840889113L88.751953125,111.91238597069389L90.4921875,114.00526224505826L92.232421875,114.73317242452887L93.97265625,118.26534857663063L95.712890625,120.45433008496106L97.453125,123.17514664153481L99.193359375,125.04244306655889L100.93359375,125.19097738019858L102.673828125,127.84600300653776L104.4140625,130.8742946799047L106.154296875,131.53688997735313L107.89453125,132.71803116099514L109.634765625,133.60596277496975L111.375,133.11341236317455L113.115234375,135.23145985716394L114.85546875,137.68641548723696L116.595703125,140.63058391978586L118.3359375,142.42247869623384L120.076171875,142.61873480939383L121.81640625,143.3950506220545L123.556640625,144.6418324443277L125.296875,145.4208742184082L127.037109375,142.21641699601554L128.77734375,144.11177156088786L130.517578125,146.46784664911533L132.2578125,148.59312140328615L133.998046875,150.00329086827816L135.73828125,147.17190638056377L137.478515625,147.2430176407094L139.21875,148.37677873078079L140.958984375,148.5368032750104L142.69921875,148.9038687304935L144.439453125,148.649820368105L146.1796875,148.78307197571337L147.919921875,150.75328989665607L149.66015625,151.33750959319414L151.400390625,151.56679609571387L153.140625,146.53870353799843L154.880859375,146.56302827659425L156.62109375,148.17569402785819L158.361328125,149.10327210843508L160.1015625,147.55184924196357L161.841796875,150.0767208999661L163.58203125,151.51535031853734L165.322265625,152.99020639175862L167.0625,153.48191116348602L168.802734375,153.44220272601305L170.54296875,147.32264471863144L172.283203125,149.75415422412283L174.0234375,151.7864130009991L175.763671875,152.9348059253947L177.50390625,153.39703627862352L179.244140625,151.8184374566273L180.984375,150.79801328638806L182.724609375,152.24706557333812L184.46484375,152.3703259501917L186.205078125,150.69575790533239L187.9453125,151.35305140010433L189.685546875,152.59046115644938L191.42578125,152.35346489760764L193.166015625,153.02539906180058L194.90625,152.47353289725643L196.646484375,153.60352927588292L198.38671875,154.19297050449293L200.126953125,152.25396103440332L201.8671875,152.72269026707988L203.607421875,153.16507984473418L205.34765625,152.8983078078023L207.087890625,153.65339135217323L208.828125,154.62902704904826L210.568359375,155.41162882026936L212.30859375,155.9464599279107L214.048828125,156.334664341228L215.7890625,156.58260533231226L217.529296875,156.67467779426352L219.26953125,152.65083704795103L221.009765625,151.4808882489079L222.75,150.72102996110127L224.490234375,151.2624846630392L226.23046875,152.49463587842578L227.970703125,153.86680427264642L229.7109375,154.8694819791986L231.451171875,150.3324766602473L233.19140625,149.59361653775923L234.931640625,151.673757585492L236.671875,153.0931569768192L238.412109375,154.28569741292614L240.15234375,155.23902984437206L241.892578125,155.8485170236544L243.6328125,155.9468243407812L245.373046875,150.15234953133466L247.11328125,152.00731893025602L248.853515625,152.74891474767747L250.59375,152.79536234512912L252.333984375,153.6430045567005L254.07421875,153.57685935853445L255.814453125,154.09230011500793L257.5546875,154.782739506417L259.294921875,154.97419546021996" style="fill: none;" fill="none"></path></g></g></g></g><g opacity="0.2"><g><g><g><path stroke="rgb(255, 112, 67)" stroke-width="2px" d="M34.8046875,24.438361962636318L36.544921875,33.62038616339366L38.28515625,37.948099017143264L40.025390625,40.91060384114585L41.765625,43.60777560869853L43.505859375,48.2794777949651L45.24609375,53.244259595870986L46.986328125,60.95174823204677L48.7265625,61.2879774371783L50.466796875,63.3460054198901L52.20703125,58.28732256094616L53.947265625,66.90524880091351L55.6875,73.06530121962231L57.427734375,75.44723832607269L59.16796875,73.18107012907664L60.908203125,82.07486186424893L62.6484375,80.56698822975159L64.388671875,82.43266586462659L66.12890625,86.64271080493927L67.869140625,94.33172518014908L69.609375,91.10126151641211L71.349609375,87.37587287028632L73.08984375,94.69827983776727L74.830078125,95.0216028491656L76.5703125,102.67838690678279L78.310546875,95.45016233126323L80.05078125,100.92626267671585L81.791015625,104.8585665623347L83.53125,105.04571809371315L85.271484375,110.45850951472917L87.01171875,114.9912679096063L88.751953125,119.21062324444452L90.4921875,118.0678975979487L92.232421875,116.14617297053337L93.97265625,125.12192079424858L95.712890625,124.70352743069331L97.453125,128.45673003792763L99.193359375,128.66719418764114L100.93359375,125.47930865486462L102.673828125,132.99987580875558L104.4140625,136.75274286667508L106.154296875,132.8231043269237L107.89453125,135.0108345746994L109.634765625,135.32959470152855L111.375,132.1572851041953L113.115234375,139.3429637849331L114.85546875,142.4519175688426L116.595703125,146.34573438763618L118.3359375,145.90086266646782L120.076171875,142.9997025579214L121.81640625,144.90201660990715L123.556640625,147.06205598016578L125.296875,146.93313177923363L127.037109375,135.99600003659725L128.77734375,147.79098924497762L130.517578125,151.04140417277813L132.2578125,152.7186547492941L133.998046875,152.740678653121L135.73828125,141.67568943401176L137.478515625,147.38105714569488L139.21875,150.57760908206305L140.958984375,148.84743915498257L142.69921875,149.6164075558384L144.439453125,148.1566676646471L146.1796875,149.04173686107L147.919921875,154.5778305667142L149.66015625,152.47158312176663L151.400390625,152.01188165942827L153.140625,136.77828857302666L154.880859375,146.61024688680968L156.62109375,151.30616283913454L158.361328125,150.9038648530841L160.1015625,144.54026367763677L161.841796875,154.9779423537354L163.58203125,154.30798389576375L165.322265625,155.8531622985999L167.0625,154.43639689683914L168.802734375,153.36512164150676L170.54296875,135.44350270430246L172.283203125,154.47414326419434L174.0234375,155.73138592081764L175.763671875,155.16403924922147L177.50390625,154.29430696430305L179.244140625,148.7540985668699L180.984375,148.81718989710012L182.724609375,155.05993177741766L184.46484375,152.6095960934957L186.205078125,147.44512581825256L187.9453125,152.62897406642637L189.685546875,154.99249185994267L191.42578125,151.8934133363267L193.166015625,154.3297418511162L194.90625,151.40226328372955L196.646484375,155.79705165792257L198.38671875,155.33717994826534L200.126953125,148.49000147481757L201.8671875,153.6325764246285L203.607421875,154.0238360837102L205.34765625,152.38045620669922L207.087890625,155.1191417618344L208.828125,156.52290810768804L210.568359375,156.9307969644045L212.30859375,156.9846614898027L214.048828125,157.08823761413805L215.7890625,157.06390255029933L217.529296875,156.85340669099241L219.26953125,144.83985206981498L221.009765625,149.20981116841236L222.75,149.2460109318296L224.490234375,152.31354379033047L226.23046875,154.8864588259409L227.970703125,156.53042527319244L229.7109375,156.81585635074106L231.451171875,141.52534868816537L233.19140625,148.15935865292946L234.931640625,155.71167844285569L236.671875,155.84846167763075L238.412109375,156.60062884772196L240.15234375,157.08961632894352L241.892578125,157.03163919520253L243.6328125,156.13765619167438L245.373046875,138.90425137182075L247.11328125,155.6081418811033L248.853515625,154.1884830991427L250.59375,152.88552532841763L252.333984375,155.28842767328024L254.07421875,153.44845985621214L255.814453125,155.0928615834564L257.5546875,156.12300420738757L259.294921875,155.34584525289634" style="fill: none;" fill="none"></path></g></g></g></g></g></g><g transform="translate(51, 177)" clip-path="url(#clip_1)"><clipPath id="clip_1"><rect width="278" height="23"></rect></clipPath><g><g><line x1="0" y1="0" x2="0" y2="5" style="visibility: inherit;" fill="rgb(0, 0, 0)" stroke="rgb(204, 204, 204)" stroke-width="1px"></line><line x1="34.8046875" y1="0" x2="34.8046875" y2="5" style="visibility: inherit;" fill="rgb(0, 0, 0)" stroke="rgb(204, 204, 204)" stroke-width="1px"></line><line x1="69.609375" y1="0" x2="69.609375" y2="5" style="visibility: inherit;" fill="rgb(0, 0, 0)" stroke="rgb(204, 204, 204)" stroke-width="1px"></line><line x1="104.4140625" y1="0" x2="104.4140625" y2="5" style="visibility: inherit;" fill="rgb(0, 0, 0)" stroke="rgb(204, 204, 204)" stroke-width="1px"></line><line x1="139.21875" y1="0" x2="139.21875" y2="5" style="visibility: inherit;" fill="rgb(0, 0, 0)" stroke="rgb(204, 204, 204)" stroke-width="1px"></line><line x1="174.0234375" y1="0" x2="174.0234375" y2="5" style="visibility: inherit;" fill="rgb(0, 0, 0)" stroke="rgb(204, 204, 204)" stroke-width="1px"></line><line x1="208.828125" y1="0" x2="208.828125" y2="5" style="visibility: inherit;" fill="rgb(0, 0, 0)" stroke="rgb(204, 204, 204)" stroke-width="1px"></line><line x1="243.6328125" y1="0" x2="243.6328125" y2="5" style="visibility: inherit;" fill="rgb(0, 0, 0)" stroke="rgb(204, 204, 204)" stroke-width="1px"></line><line x1="278.4375" y1="0" x2="278.4375" y2="5" style="visibility: inherit;" fill="rgb(0, 0, 0)" stroke="rgb(204, 204, 204)" stroke-width="1px"></line></g><g transform="translate(0, 8)"><text x="0" y="0" dx="0em" dy="0.95em" style="text-anchor: middle; visibility: hidden; font-family: Roboto, sans-serif; font-size: 12px; font-weight: 200;" fill="rgb(33, 33, 33)" stroke="none" stroke-width="1px">-20</text><text x="34.8046875" y="0" dx="0em" dy="0.95em" style="text-anchor: middle; visibility: inherit; font-family: Roboto, sans-serif; font-size: 12px; font-weight: 200;" fill="rgb(33, 33, 33)" stroke="none" stroke-width="1px">0</text><text x="69.609375" y="0" dx="0em" dy="0.95em" style="text-anchor: middle; visibility: inherit; font-family: Roboto, sans-serif; font-size: 12px; font-weight: 200;" fill="rgb(33, 33, 33)" stroke="none" stroke-width="1px">20</text><text x="104.4140625" y="0" dx="0em" dy="0.95em" style="text-anchor: middle; visibility: inherit; font-family: Roboto, sans-serif; font-size: 12px; font-weight: 200;" fill="rgb(33, 33, 33)" stroke="none" stroke-width="1px">40</text><text x="139.21875" y="0" dx="0em" dy="0.95em" style="text-anchor: middle; visibility: inherit; font-family: Roboto, sans-serif; font-size: 12px; font-weight: 200;" fill="rgb(33, 33, 33)" stroke="none" stroke-width="1px">60</text><text x="174.0234375" y="0" dx="0em" dy="0.95em" style="text-anchor: middle; visibility: inherit; font-family: Roboto, sans-serif; font-size: 12px; font-weight: 200;" fill="rgb(33, 33, 33)" stroke="none" stroke-width="1px">80</text><text x="208.828125" y="0" dx="0em" dy="0.95em" style="text-anchor: middle; visibility: inherit; font-family: Roboto, sans-serif; font-size: 12px; font-weight: 200;" fill="rgb(33, 33, 33)" stroke="none" stroke-width="1px">100</text><text x="243.6328125" y="0" dx="0em" dy="0.95em" style="text-anchor: middle; visibility: inherit; font-family: Roboto, sans-serif; font-size: 12px; font-weight: 200;" fill="rgb(33, 33, 33)" stroke="none" stroke-width="1px">120</text><text x="278.4375" y="0" dx="0em" dy="0.95em" style="text-anchor: middle; visibility: hidden; font-family: Roboto, sans-serif; font-size: 12px; font-weight: 200;" fill="rgb(33, 33, 33)" stroke="none" stroke-width="1px">140</text></g><line x1="0" y1="0" x2="278.4375" y2="0" fill="rgb(0, 0, 0)" stroke="rgb(204, 204, 204)" stroke-width="1px"></line></g></g></g></g></svg>