<svg viewBox="0 0 330 200" xmlns="http://www.w3.org/2000/svg"><g><g><g><g><g><line x1="50" y1="177" x2="45" y2="177" style="visibility: inherit;" fill="rgb(0, 0, 0)" stroke="rgb(204, 204, 204)" stroke-width="1px"></line><line x1="50" y1="159.3" x2="45" y2="159.3" style="visibility: inherit;" fill="rgb(0, 0, 0)" stroke="rgb(204, 204, 204)" stroke-width="1px"></line><line x1="50" y1="141.6" x2="45" y2="141.6" style="visibility: inherit;" fill="rgb(0, 0, 0)" stroke="rgb(204, 204, 204)" stroke-width="1px"></line><line x1="50" y1="123.90000000000003" x2="45" y2="123.90000000000003" style="visibility: inherit;" fill="rgb(0, 0, 0)" stroke="rgb(204, 204, 204)" stroke-width="1px"></line><line x1="50" y1="106.20000000000002" x2="45" y2="106.20000000000002" style="visibility: inherit;" fill="rgb(0, 0, 0)" stroke="rgb(204, 204, 204)" stroke-width="1px"></line><line x1="50" y1="88.5" x2="45" y2="88.5" style="visibility: inherit;" fill="rgb(0, 0, 0)" stroke="rgb(204, 204, 204)" stroke-width="1px"></line><line x1="50" y1="70.80000000000003" x2="45" y2="70.80000000000003" style="visibility: inherit;" fill="rgb(0, 0, 0)" stroke="rgb(204, 204, 204)" stroke-width="1px"></line><line x1="50" y1="53.10000000000001" x2="45" y2="53.10000000000001" style="visibility: inherit;" fill="rgb(0, 0, 0)" stroke="rgb(204, 204, 204)" stroke-width="1px"></line><line x1="50" y1="35.400000000000034" x2="45" y2="35.400000000000034" style="visibility: inherit;" fill="rgb(0, 0, 0)" stroke="rgb(204, 204, 204)" stroke-width="1px"></line><line x1="50" y1="17.700000000000017" x2="45" y2="17.700000000000017" style="visibility: inherit;" fill="rgb(0, 0, 0)" stroke="rgb(204, 204, 204)" stroke-width="1px"></line><line x1="50" y1="0" x2="45" y2="0" style="visibility: inherit;" fill="rgb(0, 0, 0)" stroke="rgb(204, 204, 204)" stroke-width="1px"></line></g><g transform="translate(40, 0)"><text x="0" y="177" dx="0em" dy="0.3em" style="text-anchor: end; visibility: hidden; font-family: Roboto, sans-serif; font-size: 12px; font-weight: 200;" fill="rgb(33, 33, 33)" stroke="none" stroke-width="1px">0.55</text><text x="0" y="159.3" dx="0em" dy="0.3em" style="text-anchor: end; visibility: inherit; font-family: Roboto, sans-serif; font-size: 12px; font-weight: 200;" fill="rgb(33, 33, 33)" stroke="none" stroke-width="1px">0.6</text><text x="0" y="141.6" dx="0em" dy="0.3em" style="text-anchor: end; visibility: hidden; font-family: Roboto, sans-serif; font-size: 12px; font-weight: 200;" fill="rgb(33, 33, 33)" stroke="none" stroke-width="1px">0.65</text><text x="0" y="123.90000000000003" dx="0em" dy="0.3em" style="text-anchor: end; visibility: inherit; font-family: Roboto, sans-serif; font-size: 12px; font-weight: 200;" fill="rgb(33, 33, 33)" stroke="none" stroke-width="1px">0.7</text><text x="0" y="106.20000000000002" dx="0em" dy="0.3em" style="text-anchor: end; visibility: hidden; font-family: Roboto, sans-serif; font-size: 12px; font-weight: 200;" fill="rgb(33, 33, 33)" stroke="none" stroke-width="1px">0.75</text><text x="0" y="88.5" dx="0em" dy="0.3em" style="text-anchor: end; visibility: inherit; font-family: Roboto, sans-serif; font-size: 12px; font-weight: 200;" fill="rgb(33, 33, 33)" stroke="none" stroke-width="1px">0.8</text><text x="0" y="70.80000000000003" dx="0em" dy="0.3em" style="text-anchor: end; visibility: hidden; font-family: Roboto, sans-serif; font-size: 12px; font-weight: 200;" fill="rgb(33, 33, 33)" stroke="none" stroke-width="1px">0.85</text><text x="0" y="53.10000000000001" dx="0em" dy="0.3em" style="text-anchor: end; visibility: inherit; font-family: Roboto, sans-serif; font-size: 12px; font-weight: 200;" fill="rgb(33, 33, 33)" stroke="none" stroke-width="1px">0.9</text><text x="0" y="35.400000000000034" dx="0em" dy="0.3em" style="text-anchor: end; visibility: hidden; font-family: Roboto, sans-serif; font-size: 12px; font-weight: 200;" fill="rgb(33, 33, 33)" stroke="none" stroke-width="1px">0.95</text><text x="0" y="17.700000000000017" dx="0em" dy="0.3em" style="text-anchor: end; visibility: inherit; font-family: Roboto, sans-serif; font-size: 12px; font-weight: 200;" fill="rgb(33, 33, 33)" stroke="none" stroke-width="1px">1</text><text x="0" y="0" dx="0em" dy="0.3em" style="text-anchor: end; visibility: hidden; font-family: Roboto, sans-serif; font-size: 12px; font-weight: 200;" fill="rgb(33, 33, 33)" stroke="none" stroke-width="1px">1.05</text></g><line x1="50" y1="0" x2="50" y2="177" fill="rgb(0, 0, 0)" stroke="rgb(204, 204, 204)" stroke-width="1px"></line></g></g><g transform="translate(50, 0)" clip-path="url(#clip_0)"><clipPath id="clip_0"><rect width="280" height="177"></rect></clipPath><g><g><g><line x1="0" y1="0" x2="0" y2="177" fill="rgb(0, 0, 0)" stroke="rgb(66, 66, 66)" stroke-width="1px" opacity="0.25"></line><line x1="35" y1="0" x2="35" y2="177" fill="rgb(0, 0, 0)" stroke="rgb(66, 66, 66)" stroke-width="1px" opacity="0.25"></line><line x1="70" y1="0" x2="70" y2="177" fill="rgb(0, 0, 0)" stroke="rgb(66, 66, 66)" stroke-width="1px" opacity="0.25"></line><line x1="105" y1="0" x2="105" y2="177" fill="rgb(0, 0, 0)" stroke="rgb(66, 66, 66)" stroke-width="1px" opacity="0.25"></line><line x1="140" y1="0" x2="140" y2="177" fill="rgb(0, 0, 0)" stroke="rgb(66, 66, 66)" stroke-width="1px" opacity="0.25"></line><line x1="175" y1="0" x2="175" y2="177" fill="rgb(0, 0, 0)" stroke="rgb(66, 66, 66)" stroke-width="1px" opacity="0.25"></line><line x1="210" y1="0" x2="210" y2="177" fill="rgb(0, 0, 0)" stroke="rgb(66, 66, 66)" stroke-width="1px" opacity="0.25"></line><line x1="245" y1="0" x2="245" y2="177" fill="rgb(0, 0, 0)" stroke="rgb(66, 66, 66)" stroke-width="1px" opacity="0.25"></line><line x1="280" y1="0" x2="280" y2="177" fill="rgb(0, 0, 0)" stroke="rgb(66, 66, 66)" stroke-width="1px" opacity="0.25"></line></g><g><line x1="0" y1="177" x2="280" y2="177" fill="rgb(0, 0, 0)" stroke="rgb(66, 66, 66)" stroke-width="1px" opacity="0.25"></line><line x1="0" y1="159.3" x2="280" y2="159.3" fill="rgb(0, 0, 0)" stroke="rgb(66, 66, 66)" stroke-width="1px" opacity="0.25"></line><line x1="0" y1="141.6" x2="280" y2="141.6" fill="rgb(0, 0, 0)" stroke="rgb(66, 66, 66)" stroke-width="1px" opacity="0.25"></line><line x1="0" y1="123.90000000000003" x2="280" y2="123.90000000000003" fill="rgb(0, 0, 0)" stroke="rgb(66, 66, 66)" stroke-width="1px" opacity="0.25"></line><line x1="0" y1="106.20000000000002" x2="280" y2="106.20000000000002" fill="rgb(0, 0, 0)" stroke="rgb(66, 66, 66)" stroke-width="1px" opacity="0.25"></line><line x1="0" y1="88.5" x2="280" y2="88.5" fill="rgb(0, 0, 0)" stroke="rgb(66, 66, 66)" stroke-width="1px" opacity="0.25"></line><line x1="0" y1="70.80000000000003" x2="280" y2="70.80000000000003" fill="rgb(0, 0, 0)" stroke="rgb(66, 66, 66)" stroke-width="1px" opacity="0.25"></line><line x1="0" y1="53.10000000000001" x2="280" y2="53.10000000000001" fill="rgb(0, 0, 0)" stroke="rgb(66, 66, 66)" stroke-width="1px" opacity="0.25"></line><line x1="0" y1="35.400000000000034" x2="280" y2="35.400000000000034" fill="rgb(0, 0, 0)" stroke="rgb(66, 66, 66)" stroke-width="1px" opacity="0.25"></line><line x1="0" y1="17.700000000000017" x2="280" y2="17.700000000000017" fill="rgb(0, 0, 0)" stroke="rgb(66, 66, 66)" stroke-width="1px" opacity="0.25"></line><line x1="0" y1="0" x2="280" y2="0" fill="rgb(0, 0, 0)" stroke="rgb(66, 66, 66)" stroke-width="1px" opacity="0.25"></line></g></g></g><g><g><line x1="0" y1="371.7" x2="280" y2="371.7" fill="rgb(0, 0, 0)" stroke="rgb(153, 153, 153)" stroke-width="1.5px"></line></g></g><g><g><line x1="35" y1="0" x2="35" y2="177" fill="rgb(0, 0, 0)" stroke="rgb(153, 153, 153)" stroke-width="1.5px"></line></g></g><g><g><g><g><g><path stroke="rgb(255, 112, 67)" stroke-width="2px" d="M35,163.35824747085573L36.75,152.5010925930667L38.5,147.6591481995096L40.25,146.00697929419724L42,138.435458863328L43.75,130.87631550947307L45.5,123.76944789919929L47.25,115.03807287345475L49,108.17716997560287L50.75,104.50810160525985L52.5,101.70042553105833L54.25,99.69289792971344L56,96.40945278401976L57.75,91.85310648345539L59.5,91.29338189813436L61.25,85.75239574627011L63,83.79036541650738L64.75,80.45574903758441L66.5,77.7123454683284L68.25,73.67138368823412L70,72.14954490533921L71.75,72.15502830521287L73.5,70.25679592420002L75.25,68.46421153473678L77,64.77058655173897L78.75,65.78669303792755L80.5,63.594209926151755L82.25,61.08104068489056L84,58.344115131699375L85.75,56.357103725577616L87.5,53.18603478304651L89.25,50.32140222047688L91,48.04215214208832L92.75,46.208482071215165L94.5,44.21007269023161L96.25,42.92196414418585L98,40.79724825839771L99.75,39.777031294523184L101.5,38.91996163619161L103.25,38.248055710803506L105,35.4598641740479L106.75,35.30946841498737L108.5,34.50536022579705L110.25,34.07481960205092L112,35.446733960786766L113.75,33.22700993799247L115.5,31.196041214447117L117.25,28.491132892187764L119,27.34056416675021L120.75,27.31721405716718L122.5,27.050655065996505L124.25,25.854272709426766L126,25.36586137612324L127.75,28.138408683320154L129.5,27.00455363596218L131.25,24.51508302719865L133,22.97523063195502L134.75,22.046494078783432L136.5,23.320329780704512L138.25,23.64743773678995L140,23.51918431206851L141.75,23.730623000699122L143.5,23.65960084558793L145.25,23.57317587827059L147,23.5436764435997L148.75,21.76629334406236L150.5,21.650534009741456L152.25,21.10330941569021L154,25.047533050778924L155.75,24.473987873770906L157.5,23.74734332490908L159.25,22.93731561566489L161,24.618198175857223L162.75,22.45009602212461L164.5,21.365467002951526L166.25,20.259488912141137L168,20.152613752894062L169.75,20.289591706987487L171.5,24.216567140648312L173.25,22.103809688575552L175,20.790599620518826L176.75,20.101566980240072L178.5,19.71234723910871L180.25,20.681759645722522L182,21.856796400547275L183.75,20.686634516286983L185.5,20.325391560748216L187.25,21.771415594667506L189,21.31398834025581L190.75,20.43125657224234L192.5,20.862844112288563L194.25,20.65439226618339L196,21.562340652406345L197.75,20.434930298212862L199.5,19.862944085378697L201.25,21.168973643587343L203,20.835697679344964L204.75,20.614343784026232L206.5,20.93501315399956L208.25,20.080919133147283L210,19.49184976218507L211.75,18.882620843042147L213.5,18.480529756407805L215.25,18.215149639229157L217,18.03999876189124L218.75,18.09585096841265L220.5,20.277830011401957L222.25,21.25076432003371L224,21.601894217438517L225.75,21.432440332339826L227.5,20.23050200804666L229.25,19.370131325310815L231,18.802286674705158L232.75,21.869034876787484L234.5,22.287271510481922L236.25,20.95893966007955L238,20.060367066941268L239.75,19.376543517118566L241.5,18.806518721298268L243.25,18.430302356056846L245,18.645591581231198L246.75,22.096295164586568L248.5,20.601554808627125L250.25,20.143220205409307L252,20.373712815066135L253.75,19.924763086880418L255.5,20.05779237067088L257.25,19.703342366498244L259,19.333084729856058L260.75,19.246284756124265" style="fill: none;" fill="none"></path></g></g></g></g><g opacity="0.2"><g><g><g><path stroke="rgb(255, 112, 67)" stroke-width="2px" d="M35,163.35824747085573L36.75,145.3353703737259L38.5,142.35431392192842L40.25,143.72187108993532L42,126.5266432285309L43.75,118.04031093120577L45.5,111.11403150558473L47.25,99.01353592872621L49,95.33845682144167L50.75,97.55503756999971L52.5,96.3357082128525L54.25,95.83627016544344L56,90.07924969196321L57.75,83.04831404685976L59.5,90.21009106636049L61.25,75.01748950481417L63,79.98665542602541L64.75,73.9882082462311L66.5,72.38992209434511L68.25,65.8300871372223L70,69.19611389636995L71.75,72.16567082405092L73.5,66.57238669395448L75.25,64.98473496437074L77,57.600943279266374L78.75,67.7590742826462L80.5,59.33829982280733L82.25,56.202601146698015L84,53.03130669593813L85.75,52.49998648166658L87.5,47.03045411109926L89.25,44.760659050941484L91,43.617732954025286L92.75,42.64900882244112L94.5,40.33081026077272L96.25,40.42151935100557L98,36.67280108928682L99.75,37.79661054611208L101.5,37.25623841285707L103.25,36.94376785755159L105,30.047492694854753L106.75,35.017523717880266L108.5,32.94444437026979L110.25,33.23906428813936L112,38.10986180305483L113.75,28.91813392639162L115.5,27.25357253551485L117.25,23.24042851924898L119,25.107107234001177L120.75,27.271887373924272L122.5,26.53321702480318L124.25,23.531883430480974L126,24.417768788337725L127.75,33.52041227817537L129.5,24.803540897369402L131.25,19.682581257820146L133,19.98610539436342L134.75,20.24365253448488L136.5,25.79306967258455L138.25,24.282412004470842L140,23.27022178173067L141.75,24.14106280803682L143.5,23.52173430919649L145.25,23.405409765243547L147,23.486412835121172L148.75,18.316079092025774L150.5,21.425824713706987L152.25,20.041049909591692L154,32.70396716594698L155.75,23.36063547134401L157.5,22.33679802417757L159.25,21.364908885955828L161,27.88108785152437L162.75,18.241427135467546L164.5,19.260010671615618L166.25,18.112590265274065L168,19.945150208473223L169.75,20.555490088462847L171.5,31.839519453048723L173.25,18.00257463455202L175,18.241427135467546L176.75,18.76403303146364L178.5,18.9568030357361L180.25,22.563560199737566L182,24.137750101089495L183.75,18.415143799781816L185.5,19.624155235290544L187.25,24.578403425216692L189,20.4260413169861L190.75,18.71771843433382L192.5,21.700631690025347L194.25,20.24975044727327L196,23.324828696250933L197.75,18.246427845954912L199.5,18.752617907524126L201.25,23.704207491874712L203,20.18875021934511L204.75,20.184656810760515L206.5,21.557488989830034L208.25,18.422971916198748L210,18.34836215972902L211.75,17.700000000000017L213.5,17.700000000000017L215.25,17.700000000000017L217,17.700000000000017L218.75,18.204269957542436L220.5,24.51343638896944L222.25,23.13940150737764L224,22.283499312400835L225.75,21.10350043773653L227.5,17.897327613830583L229.25,17.700000000000017L231,17.700000000000017L232.75,27.822134327888506L234.5,23.09914262294771L236.25,18.380413126945513L238,18.316079092025774L239.75,18.049121332168596L241.5,17.700000000000017L243.25,17.700000000000017L245,19.06350595951082L246.75,28.794719767570513L248.5,17.700000000000017L250.25,19.253511857986467L252,20.821139645576494L253.75,19.053272438049333L255.5,20.316025686264055L257.25,19.015292358398455L259,18.614349317550676L260.75,19.0777906894684" style="fill: none;" fill="none"></path></g></g></g></g></g></g><g transform="translate(50, 177)" clip-path="url(#clip_1)"><clipPath id="clip_1"><rect width="280" height="23"></rect></clipPath><g><g><line x1="0" y1="0" x2="0" y2="5" style="visibility: inherit;" fill="rgb(0, 0, 0)" stroke="rgb(204, 204, 204)" stroke-width="1px"></line><line x1="35" y1="0" x2="35" y2="5" style="visibility: inherit;" fill="rgb(0, 0, 0)" stroke="rgb(204, 204, 204)" stroke-width="1px"></line><line x1="70" y1="0" x2="70" y2="5" style="visibility: inherit;" fill="rgb(0, 0, 0)" stroke="rgb(204, 204, 204)" stroke-width="1px"></line><line x1="105" y1="0" x2="105" y2="5" style="visibility: inherit;" fill="rgb(0, 0, 0)" stroke="rgb(204, 204, 204)" stroke-width="1px"></line><line x1="140" y1="0" x2="140" y2="5" style="visibility: inherit;" fill="rgb(0, 0, 0)" stroke="rgb(204, 204, 204)" stroke-width="1px"></line><line x1="175" y1="0" x2="175" y2="5" style="visibility: inherit;" fill="rgb(0, 0, 0)" stroke="rgb(204, 204, 204)" stroke-width="1px"></line><line x1="210" y1="0" x2="210" y2="5" style="visibility: inherit;" fill="rgb(0, 0, 0)" stroke="rgb(204, 204, 204)" stroke-width="1px"></line><line x1="245" y1="0" x2="245" y2="5" style="visibility: inherit;" fill="rgb(0, 0, 0)" stroke="rgb(204, 204, 204)" stroke-width="1px"></line><line x1="280" y1="0" x2="280" y2="5" style="visibility: inherit;" fill="rgb(0, 0, 0)" stroke="rgb(204, 204, 204)" stroke-width="1px"></line></g><g transform="translate(0, 8)"><text x="0" y="0" dx="0em" dy="0.95em" style="text-anchor: middle; visibility: hidden; font-family: Roboto, sans-serif; font-size: 12px; font-weight: 200;" fill="rgb(33, 33, 33)" stroke="none" stroke-width="1px">-20</text><text x="35" y="0" dx="0em" dy="0.95em" style="text-anchor: middle; visibility: inherit; font-family: Roboto, sans-serif; font-size: 12px; font-weight: 200;" fill="rgb(33, 33, 33)" stroke="none" stroke-width="1px">0</text><text x="70" y="0" dx="0em" dy="0.95em" style="text-anchor: middle; visibility: inherit; font-family: Roboto, sans-serif; font-size: 12px; font-weight: 200;" fill="rgb(33, 33, 33)" stroke="none" stroke-width="1px">20</text><text x="105" y="0" dx="0em" dy="0.95em" style="text-anchor: middle; visibility: inherit; font-family: Roboto, sans-serif; font-size: 12px; font-weight: 200;" fill="rgb(33, 33, 33)" stroke="none" stroke-width="1px">40</text><text x="140" y="0" dx="0em" dy="0.95em" style="text-anchor: middle; visibility: inherit; font-family: Roboto, sans-serif; font-size: 12px; font-weight: 200;" fill="rgb(33, 33, 33)" stroke="none" stroke-width="1px">60</text><text x="175" y="0" dx="0em" dy="0.95em" style="text-anchor: middle; visibility: inherit; font-family: Roboto, sans-serif; font-size: 12px; font-weight: 200;" fill="rgb(33, 33, 33)" stroke="none" stroke-width="1px">80</text><text x="210" y="0" dx="0em" dy="0.95em" style="text-anchor: middle; visibility: inherit; font-family: Roboto, sans-serif; font-size: 12px; font-weight: 200;" fill="rgb(33, 33, 33)" stroke="none" stroke-width="1px">100</text><text x="245" y="0" dx="0em" dy="0.95em" style="text-anchor: middle; visibility: inherit; font-family: Roboto, sans-serif; font-size: 12px; font-weight: 200;" fill="rgb(33, 33, 33)" stroke="none" stroke-width="1px">120</text><text x="280" y="0" dx="0em" dy="0.95em" style="text-anchor: middle; visibility: hidden; font-family: Roboto, sans-serif; font-size: 12px; font-weight: 200;" fill="rgb(33, 33, 33)" stroke="none" stroke-width="1px">140</text></g><line x1="0" y1="0" x2="280" y2="0" fill="rgb(0, 0, 0)" stroke="rgb(204, 204, 204)" stroke-width="1px"></line></g></g></g></g></svg>