<svg viewBox="0 0 330 200" xmlns="http://www.w3.org/2000/svg"><g><g><g><g><g><line x1="51.41600036621094" y1="176.9749994277954" x2="46.41600036621094" y2="176.9749994277954" style="visibility: inherit;" fill="rgb(0, 0, 0)" stroke="rgb(204, 204, 204)" stroke-width="1px"></line><line x1="51.41600036621094" y1="154.85312449932098" x2="46.41600036621094" y2="154.85312449932098" style="visibility: inherit;" fill="rgb(0, 0, 0)" stroke="rgb(204, 204, 204)" stroke-width="1px"></line><line x1="51.41600036621094" y1="132.73124957084656" x2="46.41600036621094" y2="132.73124957084656" style="visibility: inherit;" fill="rgb(0, 0, 0)" stroke="rgb(204, 204, 204)" stroke-width="1px"></line><line x1="51.41600036621094" y1="110.60937464237212" x2="46.41600036621094" y2="110.60937464237212" style="visibility: inherit;" fill="rgb(0, 0, 0)" stroke="rgb(204, 204, 204)" stroke-width="1px"></line><line x1="51.41600036621094" y1="88.48749971389769" x2="46.41600036621094" y2="88.48749971389769" style="visibility: inherit;" fill="rgb(0, 0, 0)" stroke="rgb(204, 204, 204)" stroke-width="1px"></line><line x1="51.41600036621094" y1="66.36562478542328" x2="46.41600036621094" y2="66.36562478542328" style="visibility: inherit;" fill="rgb(0, 0, 0)" stroke="rgb(204, 204, 204)" stroke-width="1px"></line><line x1="51.41600036621094" y1="44.24374985694885" x2="46.41600036621094" y2="44.24374985694885" style="visibility: inherit;" fill="rgb(0, 0, 0)" stroke="rgb(204, 204, 204)" stroke-width="1px"></line><line x1="51.41600036621094" y1="22.121874928474426" x2="46.41600036621094" y2="22.121874928474426" style="visibility: inherit;" fill="rgb(0, 0, 0)" stroke="rgb(204, 204, 204)" stroke-width="1px"></line><line x1="51.41600036621094" y1="0" x2="46.41600036621094" y2="0" style="visibility: inherit;" fill="rgb(0, 0, 0)" stroke="rgb(204, 204, 204)" stroke-width="1px"></line></g><g transform="translate(41.41600036621094, 0)"><text style="text-anchor: end; visibility: hidden; font-family: Roboto, sans-serif; font-size: 12px; font-weight: 200;" x="0" y="176.9749994277954" dx="0em" dy="0.3em" fill="rgb(33, 33, 33)" stroke="none" stroke-width="1px">-0.1</text><text style="text-anchor: end; visibility: inherit; font-family: Roboto, sans-serif; font-size: 12px; font-weight: 200;" x="0" y="154.85312449932098" dx="0em" dy="0.3em" fill="rgb(33, 33, 33)" stroke="none" stroke-width="1px">0</text><text style="text-anchor: end; visibility: hidden; font-family: Roboto, sans-serif; font-size: 12px; font-weight: 200;" x="0" y="132.73124957084656" dx="0em" dy="0.3em" fill="rgb(33, 33, 33)" stroke="none" stroke-width="1px">0.1</text><text style="text-anchor: end; visibility: inherit; font-family: Roboto, sans-serif; font-size: 12px; font-weight: 200;" x="0" y="110.60937464237212" dx="0em" dy="0.3em" fill="rgb(33, 33, 33)" stroke="none" stroke-width="1px">0.2</text><text style="text-anchor: end; visibility: hidden; font-family: Roboto, sans-serif; font-size: 12px; font-weight: 200;" x="0" y="88.48749971389769" dx="0em" dy="0.3em" fill="rgb(33, 33, 33)" stroke="none" stroke-width="1px">0.3</text><text style="text-anchor: end; visibility: inherit; font-family: Roboto, sans-serif; font-size: 12px; font-weight: 200;" x="0" y="66.36562478542328" dx="0em" dy="0.3em" fill="rgb(33, 33, 33)" stroke="none" stroke-width="1px">0.4</text><text style="text-anchor: end; visibility: hidden; font-family: Roboto, sans-serif; font-size: 12px; font-weight: 200;" x="0" y="44.24374985694885" dx="0em" dy="0.3em" fill="rgb(33, 33, 33)" stroke="none" stroke-width="1px">0.5</text><text style="text-anchor: end; visibility: inherit; font-family: Roboto, sans-serif; font-size: 12px; font-weight: 200;" x="0" y="22.121874928474426" dx="0em" dy="0.3em" fill="rgb(33, 33, 33)" stroke="none" stroke-width="1px">0.6</text><text style="text-anchor: end; visibility: hidden; font-family: Roboto, sans-serif; font-size: 12px; font-weight: 200;" x="0" y="0" dx="0em" dy="0.3em" fill="rgb(33, 33, 33)" stroke="none" stroke-width="1px">0.7</text></g><line x1="51.41600036621094" y1="0" x2="51.41600036621094" y2="176.9749994277954" fill="rgb(0, 0, 0)" stroke="rgb(204, 204, 204)" stroke-width="1px"></line></g></g><g transform="translate(51, 0)" clip-path="url(#clip_0)"><clipPath id="clip_0"><rect width="278" height="176"></rect></clipPath><g><g><g><line x1="0" y1="0" x2="0" y2="176.9749994277954" fill="rgb(0, 0, 0)" stroke="rgb(66, 66, 66)" stroke-width="1px" opacity="0.25"></line><line x1="19.89885711669922" y1="0" x2="19.89885711669922" y2="176.9749994277954" fill="rgb(0, 0, 0)" stroke="rgb(66, 66, 66)" stroke-width="1px" opacity="0.25"></line><line x1="39.79771423339844" y1="0" x2="39.79771423339844" y2="176.9749994277954" fill="rgb(0, 0, 0)" stroke="rgb(66, 66, 66)" stroke-width="1px" opacity="0.25"></line><line x1="59.696571350097656" y1="0" x2="59.696571350097656" y2="176.9749994277954" fill="rgb(0, 0, 0)" stroke="rgb(66, 66, 66)" stroke-width="1px" opacity="0.25"></line><line x1="79.59542846679688" y1="0" x2="79.59542846679688" y2="176.9749994277954" fill="rgb(0, 0, 0)" stroke="rgb(66, 66, 66)" stroke-width="1px" opacity="0.25"></line><line x1="99.4942855834961" y1="0" x2="99.4942855834961" y2="176.9749994277954" fill="rgb(0, 0, 0)" stroke="rgb(66, 66, 66)" stroke-width="1px" opacity="0.25"></line><line x1="119.39314270019531" y1="0" x2="119.39314270019531" y2="176.9749994277954" fill="rgb(0, 0, 0)" stroke="rgb(66, 66, 66)" stroke-width="1px" opacity="0.25"></line><line x1="139.29199981689453" y1="0" x2="139.29199981689453" y2="176.9749994277954" fill="rgb(0, 0, 0)" stroke="rgb(66, 66, 66)" stroke-width="1px" opacity="0.25"></line><line x1="159.19085693359375" y1="0" x2="159.19085693359375" y2="176.9749994277954" fill="rgb(0, 0, 0)" stroke="rgb(66, 66, 66)" stroke-width="1px" opacity="0.25"></line><line x1="179.08971405029297" y1="0" x2="179.08971405029297" y2="176.9749994277954" fill="rgb(0, 0, 0)" stroke="rgb(66, 66, 66)" stroke-width="1px" opacity="0.25"></line><line x1="198.9885711669922" y1="0" x2="198.9885711669922" y2="176.9749994277954" fill="rgb(0, 0, 0)" stroke="rgb(66, 66, 66)" stroke-width="1px" opacity="0.25"></line><line x1="218.8874282836914" y1="0" x2="218.8874282836914" y2="176.9749994277954" fill="rgb(0, 0, 0)" stroke="rgb(66, 66, 66)" stroke-width="1px" opacity="0.25"></line><line x1="238.78628540039062" y1="0" x2="238.78628540039062" y2="176.9749994277954" fill="rgb(0, 0, 0)" stroke="rgb(66, 66, 66)" stroke-width="1px" opacity="0.25"></line><line x1="258.68514251708984" y1="0" x2="258.68514251708984" y2="176.9749994277954" fill="rgb(0, 0, 0)" stroke="rgb(66, 66, 66)" stroke-width="1px" opacity="0.25"></line><line x1="278.58399963378906" y1="0" x2="278.58399963378906" y2="176.9749994277954" fill="rgb(0, 0, 0)" stroke="rgb(66, 66, 66)" stroke-width="1px" opacity="0.25"></line></g><g><line x1="0" y1="176.9749994277954" x2="278.58399963378906" y2="176.9749994277954" fill="rgb(0, 0, 0)" stroke="rgb(66, 66, 66)" stroke-width="1px" opacity="0.25"></line><line x1="0" y1="154.85312449932098" x2="278.58399963378906" y2="154.85312449932098" fill="rgb(0, 0, 0)" stroke="rgb(66, 66, 66)" stroke-width="1px" opacity="0.25"></line><line x1="0" y1="132.73124957084656" x2="278.58399963378906" y2="132.73124957084656" fill="rgb(0, 0, 0)" stroke="rgb(66, 66, 66)" stroke-width="1px" opacity="0.25"></line><line x1="0" y1="110.60937464237212" x2="278.58399963378906" y2="110.60937464237212" fill="rgb(0, 0, 0)" stroke="rgb(66, 66, 66)" stroke-width="1px" opacity="0.25"></line><line x1="0" y1="88.48749971389769" x2="278.58399963378906" y2="88.48749971389769" fill="rgb(0, 0, 0)" stroke="rgb(66, 66, 66)" stroke-width="1px" opacity="0.25"></line><line x1="0" y1="66.36562478542328" x2="278.58399963378906" y2="66.36562478542328" fill="rgb(0, 0, 0)" stroke="rgb(66, 66, 66)" stroke-width="1px" opacity="0.25"></line><line x1="0" y1="44.24374985694885" x2="278.58399963378906" y2="44.24374985694885" fill="rgb(0, 0, 0)" stroke="rgb(66, 66, 66)" stroke-width="1px" opacity="0.25"></line><line x1="0" y1="22.121874928474426" x2="278.58399963378906" y2="22.121874928474426" fill="rgb(0, 0, 0)" stroke="rgb(66, 66, 66)" stroke-width="1px" opacity="0.25"></line><line x1="0" y1="0" x2="278.58399963378906" y2="0" fill="rgb(0, 0, 0)" stroke="rgb(66, 66, 66)" stroke-width="1px" opacity="0.25"></line></g></g></g><g><g><line x1="0" y1="154.85312449932098" x2="278.58399963378906" y2="154.85312449932098" fill="rgb(0, 0, 0)" stroke="rgb(153, 153, 153)" stroke-width="1.5px"></line></g></g><g><g><line x1="19.89885711669922" y1="0" x2="19.89885711669922" y2="176.9749994277954" fill="rgb(0, 0, 0)" stroke="rgb(153, 153, 153)" stroke-width="1.5px"></line></g></g><g><g><g><g><g><path style="fill: none;" stroke="rgb(255, 112, 67)" stroke-width="2px" d="M19.89885711669922,16.906543589109504L21.88874282836914,22.34194664357787L23.878628540039063,26.034419728968146L25.868514251708984,29.96603507522682L27.858399963378908,32.46995595953157L29.848285675048828,36.18873541887058L31.83817138671875,38.087685416638585L33.82805709838867,42.7859750497537L35.81794281005859,45.36924182628838L37.80782852172851,49.333167346053614L39.79771423339844,52.516731454878176L41.78759994506836,55.63271832626907L43.77748565673828,57.81001979655411L45.767371368408206,60.45019454265066L47.757257080078126,64.05307170617988L49.74714279174805,66.26170706355109L51.73702850341797,68.89370282679215L53.726914215087895,71.7919300684753L55.716799926757815,74.30001087900634L57.706685638427736,76.69098930782378L59.696571350097656,79.33384170402071L61.68645706176758,84.01774768243662L63.6763427734375,86.32410754082991L65.66622848510742,90.02674591636713L67.65611419677734,90.00629470746709L69.64599990844727,93.27459932543485L71.63588562011718,96.7208107131988L73.6257713317871,99.97645235349795L75.61565704345702,104.2122610009813L77.60554275512696,107.00661069932345L79.59542846679688,107.6372552434759L81.5853141784668,110.86166903395858L83.57519989013672,116.66175698681491L85.56508560180664,118.32469172129498L87.55497131347656,116.31146632711489L89.54485702514648,119.69301150454888L91.53474273681641,124.04482225859908L93.52462844848633,126.35126379280682L95.51451416015625,127.5958142457459L97.50439987182617,127.81989574198661L99.4942855834961,130.3114655353412L101.484171295166,128.4392204059576L103.47405700683593,131.10865931495925L105.46394271850586,132.34109173579816L107.45382843017579,136.0200660923296L109.4437141418457,135.63276203798011L111.43359985351563,138.94308890581374L113.42348556518554,142.08869428397404L115.41337127685547,141.96339859888923L117.40325698852538,142.6946726097757L119.39314270019531,142.82284670011308L121.38302841186524,142.60802161329642L123.37291412353515,142.54132762820572L125.36279983520508,140.10413295234568L127.352685546875,143.28735518108275L129.34257125854492,145.64834786609595L131.33245697021485,147.94606004548547L133.32234268188478,146.16649940356731L135.31222839355468,145.00320749331274L137.3021141052246,146.86776991366622L139.29199981689453,148.62637373372553L141.28188552856446,149.09453379072744L143.27177124023436,149.3782222191273L145.2616569519043,148.5344863188899L147.2515426635742,148.5344432810027L149.24142837524414,148.4652607881797L151.23131408691404,149.4636855693589L153.221199798584,147.37956606901537L155.21108551025392,147.87552778252433L157.20097122192382,147.8089948692571L159.19085693359375,148.85191868357356L161.18074264526368,148.7489830204621L163.1706283569336,148.51269764445587L165.1605140686035,148.13642991591448L167.15039978027343,147.17721930203462L169.14028549194336,147.96910111147812L171.1301712036133,150.05677113570556L173.12005691528321,148.93412489256806L175.1099426269531,150.6565794864517L177.09982833862304,151.1729829014535L179.08971405029297,150.35712311481538L181.0795997619629,148.91328864234745L183.06948547363282,146.8879076836943L185.05937118530272,148.68646540189366L187.04925689697265,149.0319115603431L189.03914260864258,149.27871416433027L191.0290283203125,150.18920702765664L193.0189140319824,150.94445103378825L195.00879974365233,151.10606024233707L196.9986854553223,152.32104769495496L198.9885711669922,151.49839907585675L200.97845687866212,147.80802075582986L202.968342590332,149.47360884603597L204.95822830200197,150.39815431334665L206.94811401367187,151.58849270026366L208.9379997253418,151.95095790048148L210.92788543701172,150.24159602022786L212.91777114868162,149.57360033253798L214.90765686035158,148.83291619884477L216.89754257202148,150.28185603650695L218.8874282836914,151.69653845508773L220.8773139953613,144.9650839493648L222.86719970703126,147.01020430419007L224.8570854187012,149.611004748897L226.8469711303711,150.82645555566245L228.83685684204102,150.9586214426514L230.82674255371094,151.30446490684744L232.81662826538087,152.35742218424056L234.80651397705077,153.0380957746366L236.7963996887207,153.6491958734195L238.78628540039062,153.52241284097406L240.77617111206055,150.89737486402532L242.76605682373048,150.7869130592215L244.75594253540038,150.58661770170062L246.7458282470703,146.5067256319315L248.73571395874023,149.20345641324582L250.72559967041016,151.04670682259993L252.7154853820801,152.327453350936L254.70537109375,151.79605748819887L256.6952568054199,150.85326342606064L258.68514251708984,151.9071232522466L260.67502822875974,149.6912886643873L262.6649139404297,150.81061881390912L264.6547996520996,151.0886477968076L266.64468536376955,150.00510071761627" fill="none"></path></g></g></g></g><g opacity="0.2"><g><g><g><path style="fill: none;" stroke="rgb(255, 112, 67)" stroke-width="2px" d="M19.89885711669922,16.906543589109504L21.88874282836914,25.603188476258893L23.878628540039063,29.57919389094282L25.868514251708984,34.589614722427015L27.858399963378908,35.739075066079835L29.848285675048828,41.33314617174182L31.83817138671875,40.803214296646814L33.82805709838867,49.63612643841599L35.81794281005859,49.17905854793843L37.80782852172851,55.21913477116917L39.79771423339844,57.26320292595836L41.78759994506836,60.289741570403336L43.77748565673828,61.0688627349107L45.767371368408206,64.40528428461931L47.757257080078126,69.45315240461483L49.74714279174805,69.57310239883574L51.73702850341797,72.84058269925512L53.726914215087895,76.13853507141732L55.716799926757815,78.06175001393522L57.706685638427736,80.27723840615096L59.696571350097656,83.29797535800967L61.68645706176758,91.04345252413913L63.6763427734375,89.78360179336775L65.66622848510742,95.58065961839151L67.65611419677734,89.9756180394755L69.64599990844727,98.1770423145602L71.63588562011718,101.89011897693429L73.6257713317871,104.85990981576991L75.61565704345702,110.56597007042792L77.60554275512696,111.19813370244206L79.59542846679688,108.58322185057602L81.5853141784668,115.69828907813219L83.57519989013672,125.36188822368536L85.56508560180664,120.81909370390247L87.55497131347656,113.2916283223667L89.54485702514648,124.76532918350316L91.53474273681641,130.57253832234474L93.52462844848633,129.8109260727078L95.51451416015625,129.4626399182226L97.50439987182617,128.15601798559885L99.4942855834961,134.04882022037714L101.484171295166,125.63085271413465L103.47405700683593,135.11281767653483L105.46394271850586,134.18974036652278L107.45382843017579,141.53852762617075L109.4437141418457,135.0518059565162L111.43359985351563,143.9085792072545L113.42348556518554,146.80710235103797L115.41337127685547,141.7754550712662L117.40325698852538,143.79158362609064L119.39314270019531,143.01510783561764L121.38302841186524,142.28578398307295L123.37291412353515,142.44128665057002L125.36279983520508,136.448340938562L127.352685546875,148.06218852418328L129.34257125854492,149.18983689361355L131.33245697021485,151.3926283145684L133.32234268188478,143.49715844069073L135.31222839355468,143.25826962793116L137.3021141052246,149.66461354419621L139.29199981689453,151.2642794638144L141.28188552856446,149.79677387623025L143.27177124023436,149.80375486172716L145.2616569519043,147.26888246853375L147.2515426635742,148.53437872417192L149.24142837524414,148.36148704894526L151.23131408691404,150.96132274112765L153.221199798584,144.2533868185001L155.21108551025392,148.61947035278774L157.20097122192382,147.7091954993563L159.19085693359375,150.4163044050482L161.18074264526368,148.59457952579496L163.1706283569336,148.15826958044653L165.1605140686035,147.5720283231024L167.15039978027343,145.73840338121482L169.14028549194336,149.15692382564336L171.1301712036133,153.18827617204673L173.12005691528321,147.25015552786184L175.1099426269531,153.24026137727716L177.09982833862304,151.94758802395626L179.08971405029297,149.13333343485814L181.0795997619629,146.7475369336456L183.06948547363282,143.84983624571456L185.05937118530272,151.38430197919266L187.04925689697265,149.5500807980173L189.03914260864258,149.64891807031103L191.0290283203125,151.55494632264617L193.0189140319824,152.07731704298567L195.00879974365233,151.34847405516032L196.9986854553223,154.1435288738818L198.9885711669922,150.26442614720946L200.97845687866212,142.27245327578953L202.968342590332,151.97199098134516L204.95822830200197,151.7849725143126L206.94811401367187,153.3740002806392L208.9379997253418,152.49465570080824L210.92788543701172,147.67755319984747L212.91777114868162,148.57160680100313L214.90765686035158,147.721889998305L216.89754257202148,152.4552657930002L218.8874282836914,153.81856208295892L220.8773139953613,134.86790219078048L222.86719970703126,150.07788483642796L224.8570854187012,153.51220541595737L226.8469711303711,152.6496317658106L228.83685684204102,151.15687027313487L230.82674255371094,151.82323010314144L232.81662826538087,153.9368581003303L234.80651397705077,154.05910616023058L236.7963996887207,154.5658460215939L238.78628540039062,153.33223829230587L240.77617111206055,146.95981789860224L242.76605682373048,150.62122035201574L244.75594253540038,150.28617466541937L246.7458282470703,140.3868875272778L248.73571395874023,153.24855258521734L250.72559967041016,153.8115824366311L252.7154853820801,154.24857314344007L254.70537109375,150.9989636940932L256.6952568054199,149.4390723328533L258.68514251708984,153.48791299152555L260.67502822875974,146.36753678259834L262.6649139404297,152.48961403819183L264.6547996520996,151.50569127115534L266.64468536376955,148.3797800988293" fill="none"></path></g></g></g></g></g></g><g transform="translate(51, 176)" clip-path="url(#clip_1)"><clipPath id="clip_1"><rect width="278" height="23"></rect></clipPath><g><g><line x1="0" y1="0" x2="0" y2="5" style="visibility: inherit;" fill="rgb(0, 0, 0)" stroke="rgb(204, 204, 204)" stroke-width="1px"></line><line x1="19.89885711669922" y1="0" x2="19.89885711669922" y2="5" style="visibility: inherit;" fill="rgb(0, 0, 0)" stroke="rgb(204, 204, 204)" stroke-width="1px"></line><line x1="39.79771423339844" y1="0" x2="39.79771423339844" y2="5" style="visibility: inherit;" fill="rgb(0, 0, 0)" stroke="rgb(204, 204, 204)" stroke-width="1px"></line><line x1="59.696571350097656" y1="0" x2="59.696571350097656" y2="5" style="visibility: inherit;" fill="rgb(0, 0, 0)" stroke="rgb(204, 204, 204)" stroke-width="1px"></line><line x1="79.59542846679688" y1="0" x2="79.59542846679688" y2="5" style="visibility: inherit;" fill="rgb(0, 0, 0)" stroke="rgb(204, 204, 204)" stroke-width="1px"></line><line x1="99.4942855834961" y1="0" x2="99.4942855834961" y2="5" style="visibility: inherit;" fill="rgb(0, 0, 0)" stroke="rgb(204, 204, 204)" stroke-width="1px"></line><line x1="119.39314270019531" y1="0" x2="119.39314270019531" y2="5" style="visibility: inherit;" fill="rgb(0, 0, 0)" stroke="rgb(204, 204, 204)" stroke-width="1px"></line><line x1="139.29199981689453" y1="0" x2="139.29199981689453" y2="5" style="visibility: inherit;" fill="rgb(0, 0, 0)" stroke="rgb(204, 204, 204)" stroke-width="1px"></line><line x1="159.19085693359375" y1="0" x2="159.19085693359375" y2="5" style="visibility: inherit;" fill="rgb(0, 0, 0)" stroke="rgb(204, 204, 204)" stroke-width="1px"></line><line x1="179.08971405029297" y1="0" x2="179.08971405029297" y2="5" style="visibility: inherit;" fill="rgb(0, 0, 0)" stroke="rgb(204, 204, 204)" stroke-width="1px"></line><line x1="198.9885711669922" y1="0" x2="198.9885711669922" y2="5" style="visibility: inherit;" fill="rgb(0, 0, 0)" stroke="rgb(204, 204, 204)" stroke-width="1px"></line><line x1="218.8874282836914" y1="0" x2="218.8874282836914" y2="5" style="visibility: inherit;" fill="rgb(0, 0, 0)" stroke="rgb(204, 204, 204)" stroke-width="1px"></line><line x1="238.78628540039062" y1="0" x2="238.78628540039062" y2="5" style="visibility: inherit;" fill="rgb(0, 0, 0)" stroke="rgb(204, 204, 204)" stroke-width="1px"></line><line x1="258.68514251708984" y1="0" x2="258.68514251708984" y2="5" style="visibility: inherit;" fill="rgb(0, 0, 0)" stroke="rgb(204, 204, 204)" stroke-width="1px"></line><line x1="278.58399963378906" y1="0" x2="278.58399963378906" y2="5" style="visibility: inherit;" fill="rgb(0, 0, 0)" stroke="rgb(204, 204, 204)" stroke-width="1px"></line></g><g transform="translate(0, 8)"><text style="text-anchor: middle; visibility: hidden; font-family: Roboto, sans-serif; font-size: 12px; font-weight: 200;" x="0" y="0" dx="0em" dy="0.95em" fill="rgb(33, 33, 33)" stroke="none" stroke-width="1px">-10</text><text style="text-anchor: middle; visibility: inherit; font-family: Roboto, sans-serif; font-size: 12px; font-weight: 200;" x="19.89885711669922" y="0" dx="0em" dy="0.95em" fill="rgb(33, 33, 33)" stroke="none" stroke-width="1px">0</text><text style="text-anchor: middle; visibility: hidden; font-family: Roboto, sans-serif; font-size: 12px; font-weight: 200;" x="39.79771423339844" y="0" dx="0em" dy="0.95em" fill="rgb(33, 33, 33)" stroke="none" stroke-width="1px">10</text><text style="text-anchor: middle; visibility: inherit; font-family: Roboto, sans-serif; font-size: 12px; font-weight: 200;" x="59.696571350097656" y="0" dx="0em" dy="0.95em" fill="rgb(33, 33, 33)" stroke="none" stroke-width="1px">20</text><text style="text-anchor: middle; visibility: hidden; font-family: Roboto, sans-serif; font-size: 12px; font-weight: 200;" x="79.59542846679688" y="0" dx="0em" dy="0.95em" fill="rgb(33, 33, 33)" stroke="none" stroke-width="1px">30</text><text style="text-anchor: middle; visibility: inherit; font-family: Roboto, sans-serif; font-size: 12px; font-weight: 200;" x="99.4942855834961" y="0" dx="0em" dy="0.95em" fill="rgb(33, 33, 33)" stroke="none" stroke-width="1px">40</text><text style="text-anchor: middle; visibility: hidden; font-family: Roboto, sans-serif; font-size: 12px; font-weight: 200;" x="119.39314270019531" y="0" dx="0em" dy="0.95em" fill="rgb(33, 33, 33)" stroke="none" stroke-width="1px">50</text><text style="text-anchor: middle; visibility: inherit; font-family: Roboto, sans-serif; font-size: 12px; font-weight: 200;" x="139.29199981689453" y="0" dx="0em" dy="0.95em" fill="rgb(33, 33, 33)" stroke="none" stroke-width="1px">60</text><text style="text-anchor: middle; visibility: hidden; font-family: Roboto, sans-serif; font-size: 12px; font-weight: 200;" x="159.19085693359375" y="0" dx="0em" dy="0.95em" fill="rgb(33, 33, 33)" stroke="none" stroke-width="1px">70</text><text style="text-anchor: middle; visibility: inherit; font-family: Roboto, sans-serif; font-size: 12px; font-weight: 200;" x="179.08971405029297" y="0" dx="0em" dy="0.95em" fill="rgb(33, 33, 33)" stroke="none" stroke-width="1px">80</text><text style="text-anchor: middle; visibility: hidden; font-family: Roboto, sans-serif; font-size: 12px; font-weight: 200;" x="198.9885711669922" y="0" dx="0em" dy="0.95em" fill="rgb(33, 33, 33)" stroke="none" stroke-width="1px">90</text><text style="text-anchor: middle; visibility: inherit; font-family: Roboto, sans-serif; font-size: 12px; font-weight: 200;" x="218.8874282836914" y="0" dx="0em" dy="0.95em" fill="rgb(33, 33, 33)" stroke="none" stroke-width="1px">100</text><text style="text-anchor: middle; visibility: hidden; font-family: Roboto, sans-serif; font-size: 12px; font-weight: 200;" x="238.78628540039062" y="0" dx="0em" dy="0.95em" fill="rgb(33, 33, 33)" stroke="none" stroke-width="1px">110</text><text style="text-anchor: middle; visibility: inherit; font-family: Roboto, sans-serif; font-size: 12px; font-weight: 200;" x="258.68514251708984" y="0" dx="0em" dy="0.95em" fill="rgb(33, 33, 33)" stroke="none" stroke-width="1px">120</text><text style="text-anchor: middle; visibility: hidden; font-family: Roboto, sans-serif; font-size: 12px; font-weight: 200;" x="278.58399963378906" y="0" dx="0em" dy="0.95em" fill="rgb(33, 33, 33)" stroke="none" stroke-width="1px">130</text></g><line x1="0" y1="0" x2="278.58399963378906" y2="0" fill="rgb(0, 0, 0)" stroke="rgb(204, 204, 204)" stroke-width="1px"></line></g></g></g></g></svg>