<svg viewBox="0 0 330 200" xmlns="http://www.w3.org/2000/svg"><g><g><g><g><g><line x1="51.53200149536133" y1="176.82499980926514" x2="46.53200149536133" y2="176.82499980926514" style="visibility: inherit;" fill="rgb(0, 0, 0)" stroke="rgb(204, 204, 204)" stroke-width="1px"></line><line x1="51.53200149536133" y1="164.1946426800319" x2="46.53200149536133" y2="164.1946426800319" style="visibility: inherit;" fill="rgb(0, 0, 0)" stroke="rgb(204, 204, 204)" stroke-width="1px"></line><line x1="51.53200149536133" y1="151.5642855507987" x2="46.53200149536133" y2="151.5642855507987" style="visibility: inherit;" fill="rgb(0, 0, 0)" stroke="rgb(204, 204, 204)" stroke-width="1px"></line><line x1="51.53200149536133" y1="138.93392842156547" x2="46.53200149536133" y2="138.93392842156547" style="visibility: inherit;" fill="rgb(0, 0, 0)" stroke="rgb(204, 204, 204)" stroke-width="1px"></line><line x1="51.53200149536133" y1="126.30357129233222" x2="46.53200149536133" y2="126.30357129233222" style="visibility: inherit;" fill="rgb(0, 0, 0)" stroke="rgb(204, 204, 204)" stroke-width="1px"></line><line x1="51.53200149536133" y1="113.673214163099" x2="46.53200149536133" y2="113.673214163099" style="visibility: inherit;" fill="rgb(0, 0, 0)" stroke="rgb(204, 204, 204)" stroke-width="1px"></line><line x1="51.53200149536133" y1="101.04285703386579" x2="46.53200149536133" y2="101.04285703386579" style="visibility: inherit;" fill="rgb(0, 0, 0)" stroke="rgb(204, 204, 204)" stroke-width="1px"></line><line x1="51.53200149536133" y1="88.41249990463255" x2="46.53200149536133" y2="88.41249990463255" style="visibility: inherit;" fill="rgb(0, 0, 0)" stroke="rgb(204, 204, 204)" stroke-width="1px"></line><line x1="51.53200149536133" y1="75.78214277539935" x2="46.53200149536133" y2="75.78214277539935" style="visibility: inherit;" fill="rgb(0, 0, 0)" stroke="rgb(204, 204, 204)" stroke-width="1px"></line><line x1="51.53200149536133" y1="63.15178564616611" x2="46.53200149536133" y2="63.15178564616611" style="visibility: inherit;" fill="rgb(0, 0, 0)" stroke="rgb(204, 204, 204)" stroke-width="1px"></line><line x1="51.53200149536133" y1="50.52142851693289" x2="46.53200149536133" y2="50.52142851693289" style="visibility: inherit;" fill="rgb(0, 0, 0)" stroke="rgb(204, 204, 204)" stroke-width="1px"></line><line x1="51.53200149536133" y1="37.891071387699654" x2="46.53200149536133" y2="37.891071387699654" style="visibility: inherit;" fill="rgb(0, 0, 0)" stroke="rgb(204, 204, 204)" stroke-width="1px"></line><line x1="51.53200149536133" y1="25.260714258466418" x2="46.53200149536133" y2="25.260714258466418" style="visibility: inherit;" fill="rgb(0, 0, 0)" stroke="rgb(204, 204, 204)" stroke-width="1px"></line><line x1="51.53200149536133" y1="12.630357129233238" x2="46.53200149536133" y2="12.630357129233238" style="visibility: inherit;" fill="rgb(0, 0, 0)" stroke="rgb(204, 204, 204)" stroke-width="1px"></line><line x1="51.53200149536133" y1="0" x2="46.53200149536133" y2="0" style="visibility: inherit;" fill="rgb(0, 0, 0)" stroke="rgb(204, 204, 204)" stroke-width="1px"></line></g><g transform="translate(41.53200149536133, 0)"><text style="text-anchor: end; visibility: hidden; font-family: Roboto, sans-serif; font-size: 12px; font-weight: 200;" x="0" y="176.82499980926514" dx="0em" dy="0.3em" fill="rgb(33, 33, 33)" stroke="none" stroke-width="1px">0.2</text><text style="text-anchor: end; visibility: inherit; font-family: Roboto, sans-serif; font-size: 12px; font-weight: 200;" x="0" y="164.1946426800319" dx="0em" dy="0.3em" fill="rgb(33, 33, 33)" stroke="none" stroke-width="1px">0.25</text><text style="text-anchor: end; visibility: hidden; font-family: Roboto, sans-serif; font-size: 12px; font-weight: 200;" x="0" y="151.5642855507987" dx="0em" dy="0.3em" fill="rgb(33, 33, 33)" stroke="none" stroke-width="1px">0.3</text><text style="text-anchor: end; visibility: hidden; font-family: Roboto, sans-serif; font-size: 12px; font-weight: 200;" x="0" y="138.93392842156547" dx="0em" dy="0.3em" fill="rgb(33, 33, 33)" stroke="none" stroke-width="1px">0.35</text><text style="text-anchor: end; visibility: inherit; font-family: Roboto, sans-serif; font-size: 12px; font-weight: 200;" x="0" y="126.30357129233222" dx="0em" dy="0.3em" fill="rgb(33, 33, 33)" stroke="none" stroke-width="1px">0.4</text><text style="text-anchor: end; visibility: hidden; font-family: Roboto, sans-serif; font-size: 12px; font-weight: 200;" x="0" y="113.673214163099" dx="0em" dy="0.3em" fill="rgb(33, 33, 33)" stroke="none" stroke-width="1px">0.45</text><text style="text-anchor: end; visibility: hidden; font-family: Roboto, sans-serif; font-size: 12px; font-weight: 200;" x="0" y="101.04285703386579" dx="0em" dy="0.3em" fill="rgb(33, 33, 33)" stroke="none" stroke-width="1px">0.5</text><text style="text-anchor: end; visibility: inherit; font-family: Roboto, sans-serif; font-size: 12px; font-weight: 200;" x="0" y="88.41249990463255" dx="0em" dy="0.3em" fill="rgb(33, 33, 33)" stroke="none" stroke-width="1px">0.55</text><text style="text-anchor: end; visibility: hidden; font-family: Roboto, sans-serif; font-size: 12px; font-weight: 200;" x="0" y="75.78214277539935" dx="0em" dy="0.3em" fill="rgb(33, 33, 33)" stroke="none" stroke-width="1px">0.6</text><text style="text-anchor: end; visibility: hidden; font-family: Roboto, sans-serif; font-size: 12px; font-weight: 200;" x="0" y="63.15178564616611" dx="0em" dy="0.3em" fill="rgb(33, 33, 33)" stroke="none" stroke-width="1px">0.65</text><text style="text-anchor: end; visibility: inherit; font-family: Roboto, sans-serif; font-size: 12px; font-weight: 200;" x="0" y="50.52142851693289" dx="0em" dy="0.3em" fill="rgb(33, 33, 33)" stroke="none" stroke-width="1px">0.7</text><text style="text-anchor: end; visibility: hidden; font-family: Roboto, sans-serif; font-size: 12px; font-weight: 200;" x="0" y="37.891071387699654" dx="0em" dy="0.3em" fill="rgb(33, 33, 33)" stroke="none" stroke-width="1px">0.75</text><text style="text-anchor: end; visibility: hidden; font-family: Roboto, sans-serif; font-size: 12px; font-weight: 200;" x="0" y="25.260714258466418" dx="0em" dy="0.3em" fill="rgb(33, 33, 33)" stroke="none" stroke-width="1px">0.8</text><text style="text-anchor: end; visibility: inherit; font-family: Roboto, sans-serif; font-size: 12px; font-weight: 200;" x="0" y="12.630357129233238" dx="0em" dy="0.3em" fill="rgb(33, 33, 33)" stroke="none" stroke-width="1px">0.85</text><text style="text-anchor: end; visibility: hidden; font-family: Roboto, sans-serif; font-size: 12px; font-weight: 200;" x="0" y="0" dx="0em" dy="0.3em" fill="rgb(33, 33, 33)" stroke="none" stroke-width="1px">0.9</text></g><line x1="51.53200149536133" y1="0" x2="51.53200149536133" y2="176.82499980926514" fill="rgb(0, 0, 0)" stroke="rgb(204, 204, 204)" stroke-width="1px"></line></g></g><g transform="translate(51, 0)" clip-path="url(#clip_0)"><clipPath id="clip_0"><rect width="278" height="176"></rect></clipPath><g><g><g><line x1="0" y1="0" x2="0" y2="176.82499980926514" fill="rgb(0, 0, 0)" stroke="rgb(66, 66, 66)" stroke-width="1px" opacity="0.25"></line><line x1="19.890571321759904" y1="0" x2="19.890571321759904" y2="176.82499980926514" fill="rgb(0, 0, 0)" stroke="rgb(66, 66, 66)" stroke-width="1px" opacity="0.25"></line><line x1="39.78114264351981" y1="0" x2="39.78114264351981" y2="176.82499980926514" fill="rgb(0, 0, 0)" stroke="rgb(66, 66, 66)" stroke-width="1px" opacity="0.25"></line><line x1="59.671713965279714" y1="0" x2="59.671713965279714" y2="176.82499980926514" fill="rgb(0, 0, 0)" stroke="rgb(66, 66, 66)" stroke-width="1px" opacity="0.25"></line><line x1="79.56228528703961" y1="0" x2="79.56228528703961" y2="176.82499980926514" fill="rgb(0, 0, 0)" stroke="rgb(66, 66, 66)" stroke-width="1px" opacity="0.25"></line><line x1="99.45285660879952" y1="0" x2="99.45285660879952" y2="176.82499980926514" fill="rgb(0, 0, 0)" stroke="rgb(66, 66, 66)" stroke-width="1px" opacity="0.25"></line><line x1="119.34342793055943" y1="0" x2="119.34342793055943" y2="176.82499980926514" fill="rgb(0, 0, 0)" stroke="rgb(66, 66, 66)" stroke-width="1px" opacity="0.25"></line><line x1="139.23399925231934" y1="0" x2="139.23399925231934" y2="176.82499980926514" fill="rgb(0, 0, 0)" stroke="rgb(66, 66, 66)" stroke-width="1px" opacity="0.25"></line><line x1="159.12457057407923" y1="0" x2="159.12457057407923" y2="176.82499980926514" fill="rgb(0, 0, 0)" stroke="rgb(66, 66, 66)" stroke-width="1px" opacity="0.25"></line><line x1="179.01514189583915" y1="0" x2="179.01514189583915" y2="176.82499980926514" fill="rgb(0, 0, 0)" stroke="rgb(66, 66, 66)" stroke-width="1px" opacity="0.25"></line><line x1="198.90571321759904" y1="0" x2="198.90571321759904" y2="176.82499980926514" fill="rgb(0, 0, 0)" stroke="rgb(66, 66, 66)" stroke-width="1px" opacity="0.25"></line><line x1="218.79628453935896" y1="0" x2="218.79628453935896" y2="176.82499980926514" fill="rgb(0, 0, 0)" stroke="rgb(66, 66, 66)" stroke-width="1px" opacity="0.25"></line><line x1="238.68685586111886" y1="0" x2="238.68685586111886" y2="176.82499980926514" fill="rgb(0, 0, 0)" stroke="rgb(66, 66, 66)" stroke-width="1px" opacity="0.25"></line><line x1="258.57742718287875" y1="0" x2="258.57742718287875" y2="176.82499980926514" fill="rgb(0, 0, 0)" stroke="rgb(66, 66, 66)" stroke-width="1px" opacity="0.25"></line><line x1="278.4679985046387" y1="0" x2="278.4679985046387" y2="176.82499980926514" fill="rgb(0, 0, 0)" stroke="rgb(66, 66, 66)" stroke-width="1px" opacity="0.25"></line></g><g><line x1="0" y1="176.82499980926514" x2="278.4679985046387" y2="176.82499980926514" fill="rgb(0, 0, 0)" stroke="rgb(66, 66, 66)" stroke-width="1px" opacity="0.25"></line><line x1="0" y1="164.1946426800319" x2="278.4679985046387" y2="164.1946426800319" fill="rgb(0, 0, 0)" stroke="rgb(66, 66, 66)" stroke-width="1px" opacity="0.25"></line><line x1="0" y1="151.5642855507987" x2="278.4679985046387" y2="151.5642855507987" fill="rgb(0, 0, 0)" stroke="rgb(66, 66, 66)" stroke-width="1px" opacity="0.25"></line><line x1="0" y1="138.93392842156547" x2="278.4679985046387" y2="138.93392842156547" fill="rgb(0, 0, 0)" stroke="rgb(66, 66, 66)" stroke-width="1px" opacity="0.25"></line><line x1="0" y1="126.30357129233222" x2="278.4679985046387" y2="126.30357129233222" fill="rgb(0, 0, 0)" stroke="rgb(66, 66, 66)" stroke-width="1px" opacity="0.25"></line><line x1="0" y1="113.673214163099" x2="278.4679985046387" y2="113.673214163099" fill="rgb(0, 0, 0)" stroke="rgb(66, 66, 66)" stroke-width="1px" opacity="0.25"></line><line x1="0" y1="101.04285703386579" x2="278.4679985046387" y2="101.04285703386579" fill="rgb(0, 0, 0)" stroke="rgb(66, 66, 66)" stroke-width="1px" opacity="0.25"></line><line x1="0" y1="88.41249990463255" x2="278.4679985046387" y2="88.41249990463255" fill="rgb(0, 0, 0)" stroke="rgb(66, 66, 66)" stroke-width="1px" opacity="0.25"></line><line x1="0" y1="75.78214277539935" x2="278.4679985046387" y2="75.78214277539935" fill="rgb(0, 0, 0)" stroke="rgb(66, 66, 66)" stroke-width="1px" opacity="0.25"></line><line x1="0" y1="63.15178564616611" x2="278.4679985046387" y2="63.15178564616611" fill="rgb(0, 0, 0)" stroke="rgb(66, 66, 66)" stroke-width="1px" opacity="0.25"></line><line x1="0" y1="50.52142851693289" x2="278.4679985046387" y2="50.52142851693289" fill="rgb(0, 0, 0)" stroke="rgb(66, 66, 66)" stroke-width="1px" opacity="0.25"></line><line x1="0" y1="37.891071387699654" x2="278.4679985046387" y2="37.891071387699654" fill="rgb(0, 0, 0)" stroke="rgb(66, 66, 66)" stroke-width="1px" opacity="0.25"></line><line x1="0" y1="25.260714258466418" x2="278.4679985046387" y2="25.260714258466418" fill="rgb(0, 0, 0)" stroke="rgb(66, 66, 66)" stroke-width="1px" opacity="0.25"></line><line x1="0" y1="12.630357129233238" x2="278.4679985046387" y2="12.630357129233238" fill="rgb(0, 0, 0)" stroke="rgb(66, 66, 66)" stroke-width="1px" opacity="0.25"></line><line x1="0" y1="0" x2="278.4679985046387" y2="0" fill="rgb(0, 0, 0)" stroke="rgb(66, 66, 66)" stroke-width="1px" opacity="0.25"></line></g></g></g><g><g><line x1="0" y1="227.34642832619804" x2="278.4679985046387" y2="227.34642832619804" fill="rgb(0, 0, 0)" stroke="rgb(153, 153, 153)" stroke-width="1.5px"></line></g></g><g><g><line x1="19.890571321759904" y1="0" x2="19.890571321759904" y2="176.82499980926514" fill="rgb(0, 0, 0)" stroke="rgb(153, 153, 153)" stroke-width="1.5px"></line></g></g><g><g><g><g><g><path style="fill: none;" stroke="rgb(255, 112, 67)" stroke-width="2px" d="M19.890571321759904,69.32251158372249L21.879628453935894,75.02683011667585L23.868685586111887,78.53919981045314L25.857742718287877,81.00329456970616L27.846799850463867,82.87176379239988L29.835856982639857,90.31401115812605L31.824914114815847,98.68833715957828L33.81397124699184,100.38952169246407L35.80302837916783,104.54003172541898L37.792085511343814,107.24806914058743L39.78114264351981,108.78462268664705L41.7701997756958,118.17936826182711L43.75925690787179,91.72610062596777L45.74831404004778,108.16469115753081L47.737371172223774,93.90608404859584L49.72642830439976,116.213478532897L51.715485436575754,127.12345832112014L53.70454256875175,135.8698530703963L55.693599700927734,137.775159637499L57.68265683310373,118.88049077491532L59.671713965279714,121.39593071403154L61.6607710974557,7.598004412619471L63.649828229631694,56.502106508047035L65.63888536180768,91.58991868398303L67.62794249398368,100.53255605480973L69.61699962615967,117.74244778612717L71.60605675833565,123.78464816372617L73.59511389051166,133.47980611820316L75.58417102268763,110.3874740689667L77.57322815486363,119.68591428179403L79.56228528703961,128.93071368347947L81.55134241921562,141.78414371144444L83.5403995513916,122.60757338314832L85.5294566835676,137.7730500113264L87.51851381574357,142.0243314088429L89.50757094791958,126.93985233800159L91.49662808009556,141.24804929488025L93.48568521227155,133.59146016843806L95.47474234444755,135.18757732912064L97.46379947662354,129.6512332647608L99.45285660879952,139.7690589606647L101.44191374097551,147.27396690139008L103.43097087315151,140.69231207047324L105.4200280053275,144.93970939049854L107.4090851375035,148.09730303487638L109.39814226967948,159.0836705298971L111.38719940185547,137.83588783553247L113.37625653403146,131.51130388675296L115.36531366620746,139.47513889209358L117.35437079838344,140.01283533522164L119.34342793055943,141.82265879385102L121.33248506273543,136.46302063917642L123.3215421949114,134.93593924562595L125.3105993270874,146.61414667946067L127.29965645926339,139.41891163535766L129.28871359143938,148.95208241992074L131.27777072361536,152.3024257933672L133.26682785579138,124.87834479966541L135.25588498796736,127.6975143179405L137.24494212014335,140.57982157463076L139.23399925231934,138.63923630585325L141.22305638449532,140.43226435054058L143.2121135166713,135.34812369079438L145.20117064884732,131.4933329696464L147.1902277810233,114.8865383393918L149.1792849131993,115.01832402325788L151.16834204537525,115.71448248162983L153.15739917755127,125.29046507833748L155.14645630972726,133.51650529069659L157.13551344190324,136.19066436920693L159.12457057407923,135.9912425162806L161.11362770625524,126.43476758655999L163.10268483843123,129.75611101535875L165.09174197060722,132.8441763440831L167.0807991027832,134.10091733651348L169.0698562349592,135.09644805917293L171.0589133671352,131.05691545824135L173.0479704993112,138.84506613549584L175.03702763148715,136.31518177884715L177.02608476366314,130.18648411314487L179.01514189583915,133.15691096896373L181.00419902801514,90.25379634352888L182.99325616019112,111.95372966540225L184.9823132923671,119.79712422134362L186.9713704245431,117.85181459746565L188.9604275567191,125.44742570953132L190.9494846888951,131.27178374887495L192.93854182107108,114.15218961417365L194.92759895324707,117.00094449563227L196.91665608542309,119.61987256101196L198.90571321759904,101.13516106149379L200.89477034977503,114.33778796818773L202.88382748195102,123.97113828245935L204.87288461412703,125.48220445569638L206.86194174630302,127.91097795795838L208.850998878479,125.94355845425629L210.840056010655,130.08183621930976L212.82911314283098,130.10441057190914L214.818170275007,132.07040543805095L216.80722740718298,134.32032194485103L218.79628453935896,126.02407954411525L220.78534167153492,130.7560801440349L222.77439880371094,134.36262297693838L224.76345593588692,136.52382946212478L226.7525130680629,129.89087201213798L228.7415702002389,134.5924143538459L230.7306273324149,134.78818954990825L232.7196844645909,131.24825387524768L234.70874159676688,129.50357923694594L236.69779872894287,130.70649538684884L238.68685586111886,128.2827793357903L240.67591299329487,135.95595321301582L242.66497012547086,130.18433153912693L244.65402725764682,135.75582994918528L246.6430843898228,147.15246885421172L248.63214152199882,145.14994690417254L250.6211986541748,143.69734152230487L252.6102557863508,142.95980575879184L254.59931291852678,93.63793916501218L256.58837005070274,118.3128857318653L258.57742718287875,134.65388166294346L260.56648431505477,141.7531829490631L262.5555414472307,145.82500842998633L264.54459857940674,120.87257416286565L266.53365571158275,118.29969909649299" fill="none"></path></g></g></g></g><g opacity="0.2"><g><g><g><path style="fill: none;" stroke="rgb(255, 112, 67)" stroke-width="2px" d="M19.890571321759904,69.32251158372249L21.879628453935894,78.44942123644788L23.868685586111887,81.91107471647938L25.857742718287877,83.9010700065877L27.846799850463867,85.3112372095488L29.835856982639857,100.60931847397703L31.824914114815847,110.66375733087094L33.81397124699184,102.86986507278303L35.80302837916783,110.66122782895869L37.792085511343814,111.26918909660016L39.78114264351981,111.07551657816404L41.7701997756958,132.22036083404905L43.75925690787179,52.13257368075764L45.74831404004778,132.7903720447273L47.737371172223774,72.53493384260238L49.72642830439976,149.65883735645141L51.715485436575754,143.48381126564422L53.70454256875175,148.98722448563115L55.693599700927734,140.63282923387447L57.68265683310373,90.54021452861568L59.671713965279714,125.1689526700014L61.6607710974557,-163.09514047026025L63.649828229631694,129.8572941250019L65.63888536180768,144.22122129930096L67.62794249398368,113.94644855061077L69.61699962615967,143.55721199077647L71.60605675833565,132.84793326978996L73.59511389051166,148.02252816556748L75.58417102268763,75.74899726641347L77.57322815486363,133.63356946192846L79.56228528703961,142.79790972033155L81.55134241921562,161.0642861959896L83.5403995513916,93.84272018000146L85.5294566835676,160.52126386732152L87.51851381574357,148.40125332241135L89.50757094791958,104.31313412070891L91.49662808009556,162.71034450882698L93.48568521227155,122.1065765498508L95.47474234444755,137.58175306125446L97.46379947662354,121.34671718672283L99.45285660879952,154.945797484233L101.44191374097551,158.5313288034492L103.43097087315151,130.8198298288489L105.4200280053275,151.3108053686969L107.4090851375035,152.83369350062262L109.39814226967948,175.56322177071522L111.38719940185547,105.9642137959733L113.37625653403146,122.02442796393868L115.36531366620746,151.42089139983625L117.35437079838344,140.81937999990288L119.34342793055943,144.53739398177316L121.33248506273543,128.4235634072035L123.3215421949114,132.64531715530697L125.3105993270874,164.13145783018217L127.29965645926339,128.62605906921445L129.28871359143938,163.25183859675641L131.27777072361536,157.32794085353498L133.26682785579138,83.74222330912202L135.25588498796736,131.92626859535252L137.24494212014335,159.90328245966455L139.23399925231934,135.72835840268712L141.22305638449532,143.12180641757152L143.2121135166713,127.72191270117527L145.20117064884732,125.7111468879244L147.1902277810233,89.97634639401005L149.1792849131993,115.21600254905702L151.16834204537525,116.75872016918771L153.15739917755127,139.65443897339895L155.14645630972726,145.8555656092352L157.13551344190324,140.20190298697244L159.12457057407923,135.69210973689104L161.11362770625524,112.10005519197912L163.10268483843123,134.73812615855692L165.09174197060722,137.47627433716957L167.0807991027832,135.98602882515905L169.0698562349592,136.5897441431621L171.0589133671352,124.99761655684401L173.0479704993112,150.5272921513776L175.03702763148715,132.52035524387415L177.02608476366314,120.99343761459149L179.01514189583915,137.61255125269201L181.00419902801514,25.89912440537661L182.99325616019112,144.50362964821232L184.9823132923671,131.56221605525562L186.9713704245431,114.93385016164868L188.9604275567191,136.84084237762988L190.9494846888951,140.00832080789036L192.93854182107108,88.4727984121217L194.92759895324707,121.27407681782016L196.91665608542309,123.54826465908152L198.90571321759904,73.40809381221653L200.89477034977503,134.1417283282286L202.88382748195102,138.42116375386678L204.87288461412703,127.74880371555193L206.86194174630302,131.55413821135133L208.850998878479,122.99242919870319L210.840056010655,136.28925286688997L212.82911314283098,130.13827210080814L214.818170275007,135.0193977372637L216.80722740718298,137.69519670505116L218.79628453935896,113.57971594301159L220.78534167153492,137.85408104391433L222.77439880371094,139.7724372262936L224.76345593588692,139.76563918990442L226.7525130680629,119.94143583715768L228.7415702002389,141.6447278664078L230.7306273324149,135.08185234400185L232.7196844645909,125.93835036325682L234.70874159676688,126.88656727949335L236.69779872894287,132.5108696117032L238.68685586111886,124.64720525920242L240.67591299329487,147.46571402885405L242.66497012547086,121.52689902829361L244.65402725764682,144.1130775642728L246.6430843898228,164.2474272117514L248.63214152199882,142.14616397911377L250.6211986541748,141.51843344950333L252.6102557863508,141.85350211352238L254.59931291852678,19.65513927434262L256.58837005070274,155.32530558214492L258.57742718287875,159.16537555956077L260.56648431505477,152.40213487824255L262.5555414472307,151.93274665137125L264.54459857940674,83.4439227621846L266.53365571158275,114.440386496934" fill="none"></path></g></g></g></g></g></g><g transform="translate(51, 176)" clip-path="url(#clip_1)"><clipPath id="clip_1"><rect width="278" height="23"></rect></clipPath><g><g><line x1="0" y1="0" x2="0" y2="5" style="visibility: inherit;" fill="rgb(0, 0, 0)" stroke="rgb(204, 204, 204)" stroke-width="1px"></line><line x1="19.890571321759904" y1="0" x2="19.890571321759904" y2="5" style="visibility: inherit;" fill="rgb(0, 0, 0)" stroke="rgb(204, 204, 204)" stroke-width="1px"></line><line x1="39.78114264351981" y1="0" x2="39.78114264351981" y2="5" style="visibility: inherit;" fill="rgb(0, 0, 0)" stroke="rgb(204, 204, 204)" stroke-width="1px"></line><line x1="59.671713965279714" y1="0" x2="59.671713965279714" y2="5" style="visibility: inherit;" fill="rgb(0, 0, 0)" stroke="rgb(204, 204, 204)" stroke-width="1px"></line><line x1="79.56228528703961" y1="0" x2="79.56228528703961" y2="5" style="visibility: inherit;" fill="rgb(0, 0, 0)" stroke="rgb(204, 204, 204)" stroke-width="1px"></line><line x1="99.45285660879952" y1="0" x2="99.45285660879952" y2="5" style="visibility: inherit;" fill="rgb(0, 0, 0)" stroke="rgb(204, 204, 204)" stroke-width="1px"></line><line x1="119.34342793055943" y1="0" x2="119.34342793055943" y2="5" style="visibility: inherit;" fill="rgb(0, 0, 0)" stroke="rgb(204, 204, 204)" stroke-width="1px"></line><line x1="139.23399925231934" y1="0" x2="139.23399925231934" y2="5" style="visibility: inherit;" fill="rgb(0, 0, 0)" stroke="rgb(204, 204, 204)" stroke-width="1px"></line><line x1="159.12457057407923" y1="0" x2="159.12457057407923" y2="5" style="visibility: inherit;" fill="rgb(0, 0, 0)" stroke="rgb(204, 204, 204)" stroke-width="1px"></line><line x1="179.01514189583915" y1="0" x2="179.01514189583915" y2="5" style="visibility: inherit;" fill="rgb(0, 0, 0)" stroke="rgb(204, 204, 204)" stroke-width="1px"></line><line x1="198.90571321759904" y1="0" x2="198.90571321759904" y2="5" style="visibility: inherit;" fill="rgb(0, 0, 0)" stroke="rgb(204, 204, 204)" stroke-width="1px"></line><line x1="218.79628453935896" y1="0" x2="218.79628453935896" y2="5" style="visibility: inherit;" fill="rgb(0, 0, 0)" stroke="rgb(204, 204, 204)" stroke-width="1px"></line><line x1="238.68685586111886" y1="0" x2="238.68685586111886" y2="5" style="visibility: inherit;" fill="rgb(0, 0, 0)" stroke="rgb(204, 204, 204)" stroke-width="1px"></line><line x1="258.57742718287875" y1="0" x2="258.57742718287875" y2="5" style="visibility: inherit;" fill="rgb(0, 0, 0)" stroke="rgb(204, 204, 204)" stroke-width="1px"></line><line x1="278.4679985046387" y1="0" x2="278.4679985046387" y2="5" style="visibility: inherit;" fill="rgb(0, 0, 0)" stroke="rgb(204, 204, 204)" stroke-width="1px"></line></g><g transform="translate(0, 8)"><text style="text-anchor: middle; visibility: hidden; font-family: Roboto, sans-serif; font-size: 12px; font-weight: 200;" x="0" y="0" dx="0em" dy="0.95em" fill="rgb(33, 33, 33)" stroke="none" stroke-width="1px">-10</text><text style="text-anchor: middle; visibility: inherit; font-family: Roboto, sans-serif; font-size: 12px; font-weight: 200;" x="19.890571321759904" y="0" dx="0em" dy="0.95em" fill="rgb(33, 33, 33)" stroke="none" stroke-width="1px">0</text><text style="text-anchor: middle; visibility: hidden; font-family: Roboto, sans-serif; font-size: 12px; font-weight: 200;" x="39.78114264351981" y="0" dx="0em" dy="0.95em" fill="rgb(33, 33, 33)" stroke="none" stroke-width="1px">10</text><text style="text-anchor: middle; visibility: inherit; font-family: Roboto, sans-serif; font-size: 12px; font-weight: 200;" x="59.671713965279714" y="0" dx="0em" dy="0.95em" fill="rgb(33, 33, 33)" stroke="none" stroke-width="1px">20</text><text style="text-anchor: middle; visibility: hidden; font-family: Roboto, sans-serif; font-size: 12px; font-weight: 200;" x="79.56228528703961" y="0" dx="0em" dy="0.95em" fill="rgb(33, 33, 33)" stroke="none" stroke-width="1px">30</text><text style="text-anchor: middle; visibility: inherit; font-family: Roboto, sans-serif; font-size: 12px; font-weight: 200;" x="99.45285660879952" y="0" dx="0em" dy="0.95em" fill="rgb(33, 33, 33)" stroke="none" stroke-width="1px">40</text><text style="text-anchor: middle; visibility: hidden; font-family: Roboto, sans-serif; font-size: 12px; font-weight: 200;" x="119.34342793055943" y="0" dx="0em" dy="0.95em" fill="rgb(33, 33, 33)" stroke="none" stroke-width="1px">50</text><text style="text-anchor: middle; visibility: inherit; font-family: Roboto, sans-serif; font-size: 12px; font-weight: 200;" x="139.23399925231934" y="0" dx="0em" dy="0.95em" fill="rgb(33, 33, 33)" stroke="none" stroke-width="1px">60</text><text style="text-anchor: middle; visibility: hidden; font-family: Roboto, sans-serif; font-size: 12px; font-weight: 200;" x="159.12457057407923" y="0" dx="0em" dy="0.95em" fill="rgb(33, 33, 33)" stroke="none" stroke-width="1px">70</text><text style="text-anchor: middle; visibility: inherit; font-family: Roboto, sans-serif; font-size: 12px; font-weight: 200;" x="179.01514189583915" y="0" dx="0em" dy="0.95em" fill="rgb(33, 33, 33)" stroke="none" stroke-width="1px">80</text><text style="text-anchor: middle; visibility: hidden; font-family: Roboto, sans-serif; font-size: 12px; font-weight: 200;" x="198.90571321759904" y="0" dx="0em" dy="0.95em" fill="rgb(33, 33, 33)" stroke="none" stroke-width="1px">90</text><text style="text-anchor: middle; visibility: inherit; font-family: Roboto, sans-serif; font-size: 12px; font-weight: 200;" x="218.79628453935896" y="0" dx="0em" dy="0.95em" fill="rgb(33, 33, 33)" stroke="none" stroke-width="1px">100</text><text style="text-anchor: middle; visibility: hidden; font-family: Roboto, sans-serif; font-size: 12px; font-weight: 200;" x="238.68685586111886" y="0" dx="0em" dy="0.95em" fill="rgb(33, 33, 33)" stroke="none" stroke-width="1px">110</text><text style="text-anchor: middle; visibility: inherit; font-family: Roboto, sans-serif; font-size: 12px; font-weight: 200;" x="258.57742718287875" y="0" dx="0em" dy="0.95em" fill="rgb(33, 33, 33)" stroke="none" stroke-width="1px">120</text><text style="text-anchor: middle; visibility: hidden; font-family: Roboto, sans-serif; font-size: 12px; font-weight: 200;" x="278.4679985046387" y="0" dx="0em" dy="0.95em" fill="rgb(33, 33, 33)" stroke="none" stroke-width="1px">130</text></g><line x1="0" y1="0" x2="278.4679985046387" y2="0" fill="rgb(0, 0, 0)" stroke="rgb(204, 204, 204)" stroke-width="1px"></line></g></g></g></g></svg>